<?xml version="1.0" standalone="no"?>
<!DOCTYPE svg PUBLIC "-//W3C//DTD SVG 1.1//EN" "http://www.w3.org/Graphics/SVG/1.1/DTD/svg11.dtd" >
<svg xmlns="http://www.w3.org/2000/svg">
<metadata>
This is a custom SVG webfont generated by Font Squirrel.
Copyright   : Copyright  1987 1992 1998 2002 Adobe Systems Incorporated  All Rights Reserved 1987 1992 1998 2002 Heidelberger Druckmaschinen AG All rights reserved
Designer    : Aldo Novarese A Butti
Foundry URL : httpwwwadobecomtype
</metadata>
<defs>
<font id="webfontrxUlhnFh" horiz-adv-x="1167" >
<font-face units-per-em="2048" ascent="1536" descent="-512" />
<missing-glyph horiz-adv-x="706" />
<glyph unicode=" "  horiz-adv-x="706" />
<glyph unicode="&#x09;" horiz-adv-x="706" />
<glyph unicode="&#xa0;" horiz-adv-x="706" />
<glyph unicode="!" horiz-adv-x="552" d="M373 209v-209h-183v209h183zM373 1536l-17 -1112h-149l-17 1112h183z" />
<glyph unicode="&#x22;" horiz-adv-x="727" d="M104 1536h193v-227l-55 -277h-82l-56 277v227zM430 1536h193v-227l-56 -277h-82l-55 277v227z" />
<glyph unicode="#" horiz-adv-x="1413" d="M559 1536h158l-74 -418h254l72 418h161l-71 -418h188v-164h-219l-55 -333h207v-164h-240l-78 -457h-155l75 457h-252l-81 -457h-154l76 457h-205v164h235l56 333h-215v164h243zM616 954l-55 -333h252l55 333h-252z" />
<glyph unicode="$" horiz-adv-x="1413" d="M641 852v541q-74 0 -108.5 -1t-87 -5.5t-75 -14.5t-52 -28.5t-41 -47t-20.5 -69.5t-9 -99q0 -59 9 -104t26.5 -74.5t43 -49t58.5 -29t73 -14.5t86 -5h97zM774 709v-566q76 0 119 1t93 7.5t77 17.5t53.5 31.5t38.5 51.5t19.5 73t7.5 99q0 100 -17.5 157.5t-73 84 t-101.5 31.5t-159 10q-37 2 -57 2zM774 1393v-541q264 -4 354 -31q176 -51 215 -237q12 -59 13 -138q0 -145 -32 -234t-109.5 -135t-176 -61.5t-264.5 -15.5v-174h-133v174q-94 0 -152.5 2t-127 11.5t-108.5 26.5t-81 48t-62.5 76t-35 109.5t-13.5 150.5v53h175v-53 q0 -70 2 -103.5t15 -72.5t36.5 -53.5t72 -29.5t113 -18.5t166.5 -3.5v566q-76 0 -119 2t-106.5 7t-99 15t-81 28.5t-70 48.5t-48 70t-33.5 95t-10 127q0 84 12 149.5t33.5 111.5t61.5 78t81 50t105.5 28.5t125 13.5t148.5 3v143h133v-143q92 0 147.5 -2t121 -10t102.5 -23.5 t74.5 -43t56 -68.5t31 -99.5t12.5 -136.5v-47h-174v47q0 164 -64.5 202t-306.5 38z" />
<glyph unicode="%" horiz-adv-x="1810" d="M1642 270v226q0 113 -36.5 136t-180.5 23q-133 0 -167.5 -23.5t-34.5 -135.5v-226q0 -121 33.5 -145.5t168.5 -24.5q139 0 178 24.5t39 145.5zM1765 492v-226q-2 -176 -74.5 -227t-263 -51t-257 50t-70.5 226v225q4 176 70.5 227.5t254.5 51.5q193 0 265.5 -51t74.5 -225 zM1497 1536l-1042 -1548h-138l1037 1548h143zM711 1272v-225q-2 -176 -75 -227.5t-263.5 -51.5t-257 50t-70.5 226v226q4 176 70.5 227t255.5 51q193 0 265.5 -51t74.5 -225zM588 1051v225q0 113 -37 136.5t-180 23.5q-133 0 -168 -23.5t-35 -136.5v-225q0 -121 34 -145.5 t169 -24.5q139 0 178 24.5t39 145.5z" />
<glyph unicode="&#x26;" horiz-adv-x="1613" d="M1153 295l-600 493q-119 -27 -167 -56.5t-64.5 -84.5t-16.5 -184q0 -80 4 -128t22.5 -88t41 -57.5t76 -31t109.5 -15.5t157 -2q213 0 284 19q131 31 154 135zM1516 0l-228 188q-18 -41 -48 -73.5t-59.5 -54t-78.5 -36t-85 -21.5t-98.5 -10t-98.5 -4t-105 -1q-76 0 -111 1 t-99.5 4t-94 11t-77.5 24.5t-71.5 40t-53.5 59.5t-43 83t-23.5 111.5t-10.5 142.5q0 61 3 110.5t14 87.5l20 64q8 27 30.5 48.5t34 33.5t44 24.5t48 17.5t58.5 15.5t61 16.5q-82 68 -110.5 125t-28.5 178q0 215 112.5 288.5t358.5 73.5q227 0 330.5 -78.5t103.5 -308.5v-96 h-174v96q-2 150 -47 192t-213 42q-61 0 -96 -2t-79 -13.5t-66.5 -33t-39 -61.5t-16.5 -99q0 -78 21.5 -120t85.5 -95l598 -502l6 102q2 18 -1 55.5t-3 51.5h160q4 -82 4 -121q0 -125 -19 -215l279 -221z" />
<glyph unicode="'" horiz-adv-x="391" d="M100 1536h193v-227l-55 -277h-82l-56 277v227z" />
<glyph unicode="(" horiz-adv-x="638" d="M512 1548v-153h-55q-59 0 -97 -31t-52.5 -91.5t-17.5 -99t-3 -106.5v-893q0 -68 3 -106.5t17.5 -99t52 -91.5t97.5 -31h55v-153h-55q-109 0 -180.5 37t-105.5 109.5t-46 149.5t-12 185v893q0 109 12 185.5t46 149.5t105.5 109.5t180.5 36.5h55z" />
<glyph unicode=")" horiz-adv-x="638" d="M127 1395v153h55q109 0 180.5 -36.5t105.5 -109.5t46 -149.5t12 -185.5v-893q0 -109 -12 -185.5t-46 -149t-105.5 -109.5t-180.5 -37h-55v153h55q59 0 97 31t52.5 91.5t17.5 99t3 106.5v893q0 68 -3 106.5t-17.5 99t-52 91.5t-97.5 31h-55z" />
<glyph unicode="*" horiz-adv-x="1413" d="M1116 1206l-315 -114l188 -269l-90 -67l-190 276l-205 -276l-90 67l196 269l-313 118l39 111l315 -117v332h113v-332l313 117z" />
<glyph unicode="+" horiz-adv-x="1196" d="M522 1075h154v-418h418v-153h-418v-420h-154v420h-420v153h420v418z" />
<glyph unicode="," horiz-adv-x="706" d="M326 0h-78v209h182v-248q0 -94 -31.5 -142t-126.5 -48h-47v92q57 2 79 22.5t22 75.5v39z" />
<glyph unicode="-" horiz-adv-x="534" d="M0 637h535v-154h-535v154z" />
<glyph unicode="." horiz-adv-x="706" d="M408 209v-209h-183v209h183z" />
<glyph unicode="/" horiz-adv-x="1488" d="M1432 1536l-1188 -1767h-187l1184 1767h191z" />
<glyph unicode="0" horiz-adv-x="1413" d="M705 1395q-78 0 -116 -1t-95.5 -4.5t-82 -10.5t-60.5 -20t-50 -34l-33 -49q-18 -29 -24 -71t-11.5 -93t-5.5 -119v-450q0 -68 5.5 -119t11.5 -93t24 -71l33 -49q14 -20 50 -33.5t60.5 -20.5t82 -10.5t95.5 -4.5t116 -1h106q35 0 89 3t77.5 8.5t60.5 15.5t52 25l35 36 q22 23 29 52l17 67q10 39 12.5 86t2.5 109v450q0 61 -2 108.5t-13 86.5l-17 67q-7 29 -29 52l-35 36q-14 14 -51.5 24.5t-61 16t-77.5 8.5t-89 3h-106zM709 -12q-197 0 -306.5 17.5t-194.5 75.5t-118 167.5t-37 294.5v450q4 150 28.5 247t66.5 159.5t126 94.5t179.5 43 t251.5 11q197 0 306 -17.5t194 -75.5t118 -167.5t37 -294.5v-450q-4 -150 -28.5 -247t-66.5 -159.5t-126 -94.5t-179 -43t-251 -11z" />
<glyph unicode="1" horiz-adv-x="1413" d="M918 1536v-1536h-175v1403l-393 -432l-108 104l424 461h252z" />
<glyph unicode="2" horiz-adv-x="1413" d="M1253 154v-154h-1106v260q0 74 7.5 132.5t27 103.5t39 76.5t59 55t72.5 38t95.5 27t108.5 18.5t130 14q227 23 275 39q86 29 108 121q14 61 14 178q0 82 -5 135t-24.5 92t-40 58.5t-68.5 31t-93 13.5t-129 2q-102 0 -159.5 -2t-109 -14.5t-74 -30t-38.5 -55.5t-19.5 -83 t-0.5 -120v-80h-175v80q0 94 5.5 151t26 115.5t57 89.5t101 57.5t159 35.5t227.5 9q309 0 421.5 -98t112.5 -387q0 -123 -19 -205t-54 -135t-104.5 -83t-146.5 -44t-206 -25q-252 -20 -328.5 -71t-76.5 -215v-131h931z" />
<glyph unicode="3" horiz-adv-x="1413" d="M563 711v153h182q172 4 218 21q80 33 92 166q2 31 2 67q0 82 -8.5 127t-26.5 79t-68.5 47t-114 18.5t-182.5 5.5q-223 0 -280.5 -43t-63.5 -222v-65h-174v65q0 98 14.5 168t48.5 116t72.5 72.5t108.5 40t132.5 17.5t164.5 4q68 0 96 -1l86 -3q57 -2 82 -7l70 -14 q45 -9 65 -25l51 -37q31 -22 45 -50l29 -66q16 -38 21.5 -87.5t5.5 -108.5q0 -172 -49 -259t-205 -99v-5q168 -12 226.5 -93t58.5 -259q0 -131 -29 -218t-66 -133t-124 -67.5t-148 -24.5t-195 -3h-36q-145 0 -236.5 13t-168.5 55t-109.5 125t-30.5 214v103h174v-103 q0 -176 58.5 -213t312.5 -41q92 4 160.5 0t115.5 10.5t75.5 29t45 54t21.5 88t5 130.5q0 55 -9 96t-19 68.5t-38 46t-47.5 27.5t-65.5 13.5t-73.5 5.5t-89.5 1h-182z" />
<glyph unicode="4" horiz-adv-x="1413" d="M1100 1536v-1032h223v-154h-223v-350h-174v350h-865v207l773 979h266zM926 504v919h-4l-717 -919h721z" />
<glyph unicode="5" horiz-adv-x="1413" d="M340 1382v-458h4q76 127 414 127q139 0 237.5 -28t151.5 -69t83 -113.5t37 -139t7 -169.5q0 -125 -9.5 -207.5t-36 -146t-62.5 -98.5t-105.5 -57.5t-148 -28.5t-203.5 -6q-170 0 -263.5 12t-166 56t-101 125t-37.5 222l-2 37h176v-51q0 -72 16.5 -118t41 -72.5t81 -39 t106.5 -15.5t149 -3q94 0 154.5 5.5t106.5 22.5t69.5 40.5t39 73t18.5 103.5t3 146q0 129 -13.5 197t-60.5 109t-114.5 50t-202.5 9q-10 0 -56.5 1t-68 0t-63.5 -4t-64.5 -12.5t-51 -24.5t-44 -39.5t-21.5 -59.5h-174v778h1044v-154h-870z" />
<glyph unicode="6" horiz-adv-x="1413" d="M743 797q-94 0 -150 -2t-110.5 -11.5t-82 -27t-51 -47t-31 -72.5t-7.5 -107q0 -92 3 -145t18.5 -102.5t39 -73t70.5 -40.5t107.5 -22.5t157.5 -5.5q74 0 126 2t96 11.5t70.5 17.5t47 29.5t30.5 41t16.5 59.5t7.5 74t1 93q0 119 -8.5 175t-49 96t-105.5 48.5t-196 8.5z M137 530v609q2 106 29 182t72 120t121.5 68.5t156.5 31.5t199 7h85q28 0 82 -3t82.5 -9t72.5 -18.5t68.5 -28.5t54.5 -44t45.5 -61.5t25.5 -82t10 -105.5v-49h-174v43q0 39 -5 67.5t-18.5 50t-25.5 37t-41 24.5t-48.5 14.5t-62.5 8.5t-69 3h-82h-80q-20 0 -67.5 -1t-63 -5.5 t-50 -9.5t-45 -14t-33 -23.5t-29.5 -32.5l-17 -43q-10 -25 -14.5 -56.5t-4.5 -70.5v-330h4q57 141 392 141q139 0 224 -9t158.5 -35.5t110.5 -81t56.5 -139.5t19.5 -216q0 -158 -25.5 -250t-97.5 -145.5t-172 -69.5t-274 -16q-139 0 -225.5 11t-159 42t-109.5 92.5 t-56.5 156.5t-19.5 240z" />
<glyph unicode="7" horiz-adv-x="1413" d="M1249 1536v-219l-745 -1317h-205l807 1393h-977v143h1120z" />
<glyph unicode="8" horiz-adv-x="1413" d="M399 797v4q-152 27 -198.5 99.5t-46.5 250.5q0 82 12 142.5t30.5 103.5t57.5 70.5t75 44t103.5 24.5t123.5 10t150.5 2t147.5 -2t121.5 -9t104.5 -23.5t77 -45t60.5 -70.5t32 -103.5t12.5 -143.5q0 -84 -7.5 -134t-31 -99.5t-73.5 -77t-132 -41.5v-2q154 -25 208 -105 t54 -268q0 -150 -24.5 -234t-97.5 -131t-171 -59t-280 -12q-270 0 -361 26q-150 45 -192 207q-20 82 -21 203q0 186 47 266t219 107zM328 1151q0 -98 8 -144t48 -83t112.5 -46.5t210 -9.5t208 8.5t112.5 43t51 83t9 148.5q0 88 -8 129t-50 70.5t-112.5 37t-209.5 7.5 q-94 0 -150.5 -2t-103.5 -13.5t-69 -25t-36 -44t-17 -64.5t-3 -95zM307 424q0 -70 2 -107.5t17.5 -73.5t37 -51.5t71.5 -28.5t109.5 -16.5t162.5 -5.5q252 -4 325.5 49.5t73.5 233.5q0 102 -11.5 154.5t-57.5 86t-117.5 42t-213 8.5t-209 -6.5t-116.5 -38t-61.5 -86 t-12.5 -160.5z" />
<glyph unicode="9" horiz-adv-x="1413" d="M715 750q98 0 153.5 2t105.5 14t71.5 29.5t39 56.5t21.5 85t4 124q0 63 -3 108t-16.5 81t-24.5 59.5t-40 40t-51.5 25.5t-69.5 13.5t-84 5.5t-106 1q-102 0 -152.5 -2t-105 -13.5t-73.5 -30t-37.5 -59.5t-21.5 -92t-3 -137q0 -76 5 -124t23.5 -86t41 -55.5t72.5 -29.5 t103.5 -14t147.5 -2zM129 334v57h174v-57q0 -129 74 -161t338 -32q94 0 143 2t102.5 13.5t75 31t43 58.5t26.5 92t5 135v256l-4 4q-63 -141 -379 -137h-12q-174 0 -271.5 14.5t-170 64.5t-99.5 140t-27 246q0 129 17.5 213t53.5 140t106.5 85t158.5 39t232 10 q174 0 274.5 -16t172 -69.5t97 -147.5t25.5 -254v-588q0 -156 -19.5 -242t-82 -145t-171 -78.5t-296.5 -19.5q-111 0 -171.5 2t-139 12t-119.5 31.5t-82 59.5t-57.5 97.5t-16.5 143.5z" />
<glyph unicode=":" horiz-adv-x="706" d="M408 209v-209h-183v209h183zM408 1075v-209h-183v209h183z" />
<glyph unicode=";" horiz-adv-x="706" d="M326 0h-78v209h182v-248q0 -94 -31.5 -142t-126.5 -48h-47v92q57 2 79 22.5t22 75.5v39zM430 1075v-209h-182v209h182z" />
<glyph unicode="&#x3c;" horiz-adv-x="1196" d="M1094 991v-164l-809 -331l809 -332v-164l-992 424v143z" />
<glyph unicode="=" horiz-adv-x="1196" d="M102 817h992v-153h-992v153zM102 500h992v-154h-992v154z" />
<glyph unicode="&#x3e;" horiz-adv-x="1196" d="M1094 567v-143l-992 -424v164l801 332l-801 331v164z" />
<glyph unicode="?" horiz-adv-x="1196" d="M612 438h-174v56q0 145 54.5 202.5t234.5 124.5q94 37 127 62.5t48.5 79t15.5 176.5q0 168 -56.5 212t-251.5 44q-111 0 -162 -5.5t-96 -31t-58 -76.5t-13 -143v-88h-164v88q2 113 23.5 187.5t56 118.5t100 66.5t133.5 29.5t180 7q262 0 366.5 -84t104.5 -325 q0 -141 -14 -214t-73.5 -136.5t-180.5 -104.5q-135 -47 -168 -75.5t-33 -114.5v-56zM616 209v-209h-182v209h182z" />
<glyph unicode="@" horiz-adv-x="2027" d="M1319 1126h145l-182 -573q-14 -45 14.5 -67.5t96.5 -22.5q90 0 158.5 76.5t98 179t29.5 203.5q0 145 -98 261.5t-242.5 175t-294.5 56.5q-272 -2 -482 -219t-204 -491q10 -254 201 -419t451 -165q154 2 344 61l51 -119q-199 -74 -391 -75q-330 -4 -571.5 202.5 t-237.5 530.5q6 219 123.5 409.5t308 304t405.5 113.5q184 0 359.5 -68.5t298.5 -213t123 -330.5q0 -225 -132 -410.5t-345 -185.5q-182 0 -201 133q-43 -43 -72 -66.5t-75 -43t-97 -19.5q-135 -6 -217 98.5t-78 241.5q10 184 136 329.5t307 153.5q74 4 142.5 -42t86.5 -115 h4zM1217 911q-6 63 -50.5 98t-107.5 35q-125 0 -209 -116.5t-90 -249.5q-2 -80 51 -149.5t133 -69.5q84 0 151.5 85t97.5 189t24 178z" />
<glyph unicode="A" horiz-adv-x="1402" d="M1090 326h-777l-118 -326h-183l559 1536h246l574 -1536h-181zM1040 469l-342 924l-338 -924h680z" />
<glyph unicode="B" horiz-adv-x="1421" d="M299 713v-559h551q158 0 219 46t61 212q0 168 -49 235q-48 66 -201 66h-10h-571zM942 0h-817v1536h778q207 0 282 -96.5t75 -309.5q0 -133 -40 -209.5t-153 -113.5v-4q141 -25 189.5 -118t48.5 -257q0 -213 -86.5 -320.5t-276.5 -107.5zM299 1382v-516h506 q162 0 221 56.5t59 230.5q0 145 -56 187t-206 42h-524z" />
<glyph unicode="C" horiz-adv-x="1361" d="M784 -12h-245q-211 0 -329 127t-118 356v594q0 127 33 217t84 141.5t139 80t174 36.5t211 8h144q236 0 327.5 -103.5t91.5 -338.5v-49h-174v43q0 168 -53 231.5t-217 63.5h-98q-285 0 -386.5 -60.5t-101.5 -263.5v-422q0 -102 2 -160.5t12.5 -125t30 -101.5t53 -65.5 t85 -43t122.5 -12.5h207q215 0 290 49.5t75 208.5v123h174v-143q0 -102 -27.5 -175t-70.5 -115t-116 -64.5t-144 -29.5t-175 -7z" />
<glyph unicode="D" horiz-adv-x="1503" d="M131 0v1536h748q74 0 128 -6t135 -40t133 -92.5t91 -175t39 -278.5v-366q0 -51 -4 -97.5t-18.5 -119t-48.5 -131t-84 -114t-135 -86t-195 -30.5h-789zM305 154h574q113 0 184.5 30.5t106 96t47 139.5t14.5 188v404q0 45 -10.5 96t-40 118.5t-100 111.5t-173.5 44h-602 v-1228z" />
<glyph unicode="E" horiz-adv-x="1146" d="M258 1382v-522h778v-143h-778v-563h813v-154h-987v1536h987v-154h-813z" />
<glyph unicode="F" horiz-adv-x="1124" d="M307 1382v-536h748v-144h-748v-702h-174v1536h942v-154h-768z" />
<glyph unicode="G" horiz-adv-x="1425" d="M694 768h664v-334q0 -260 -118 -353t-392 -93h-168q-166 0 -267.5 19.5t-179 77.5t-110.5 167.5t-33 286.5v475q0 293 118 413.5t333 120.5h403q186 0 298 -83t112 -259v-119h-174v89q0 131 -65.5 175t-254.5 44h-215q-86 0 -143.5 -6.5t-102.5 -24.5t-69.5 -44t-40 -74 t-20.5 -105.5t-5 -147.5v-493q0 -215 82 -287t303 -72h164q233 0 302 50.5t69 232.5v190h-490v154z" />
<glyph unicode="H" horiz-adv-x="1536" d="M1393 1536v-1536h-174v707h-900v-707h-174v1536h174v-676h900v676h174z" />
<glyph unicode="I" horiz-adv-x="466" d="M322 1536v-1536h-175v1536h175z" />
<glyph unicode="J" horiz-adv-x="1157" d="M838 1536h172v-1165q0 -215 -120 -299t-347 -84q-88 0 -153.5 7t-131 27.5t-106.5 58.5t-67 101.5t-26 151.5v225h174v-174q0 -147 50.5 -195.5t228.5 -48.5q63 0 96 1t84 12.5t77 31t46.5 60.5t20.5 100z" />
<glyph unicode="K" horiz-adv-x="1388" d="M322 1536v-672h151l627 672h227l-702 -743l786 -793h-235l-703 711h-151v-711h-175v1536h175z" />
<glyph unicode="L" horiz-adv-x="1142" d="M328 1536v-1382h782v-154h-956v1536h174z" />
<glyph unicode="M" horiz-adv-x="1976" d="M1655 1405l-580 -1405h-172l-581 1405h-5v-1405h-174v1536h301l543 -1315l545 1315h301v-1536h-174v1405h-4z" />
<glyph unicode="N" horiz-adv-x="1603" d="M1464 1536v-1536h-284l-863 1393h-4v-1393h-174v1536h287l860 -1403h4v1403h174z" />
<glyph unicode="O" horiz-adv-x="1374" d="M584 1548h207q287 -2 393 -113.5t106 -402.5v-547q0 -272 -111.5 -384.5t-387.5 -112.5h-207q-276 0 -388 112.5t-112 384.5v547q0 291 106.5 402.5t393.5 113.5zM791 1395h-207q-197 0 -261.5 -71t-64.5 -292v-547q0 -113 17.5 -181t62.5 -104t98 -47.5t148 -11.5h207 q94 0 147 11.5t98 47.5t62.5 104.5t17.5 180.5v547q0 221 -64 292t-261 71z" />
<glyph unicode="P" horiz-adv-x="1353" d="M121 0v1536h782q207 0 287 -122t80 -343q0 -43 -1 -70.5t-8.5 -82t-20.5 -92.5t-41 -84t-66.5 -74.5t-99 -49t-138.5 -20.5h-600v-598h-174zM827 1382h-532v-630h450h74q23 0 64 3t57 8l46 14q30 9 41 24.5t28.5 37t23.5 51.5t11.5 69.5t5.5 89.5q0 113 -10.5 176 t-44 100t-81 47t-133.5 10z" />
<glyph unicode="Q" horiz-adv-x="1509" d="M1503 188l-71 -118l-115 77q-131 -160 -445 -159h-239q-164 0 -267.5 31.5t-162 107.5t-80 180.5t-21.5 267.5v435q0 285 121 406.5t410 131.5h239q295 0 415 -119.5t120 -418.5v-435q0 -205 -33 -301zM778 668l443 -291q12 33 12 121v571q0 160 -66.5 243t-259.5 83 h-293q-193 0 -265.5 -77t-72.5 -274v-499q0 -250 69 -327t269 -77h293q203 0 271 97l-480 311z" />
<glyph unicode="R" horiz-adv-x="1435" d="M315 614v-614h-174v1536h709q258 0 367.5 -94t109.5 -348q0 -92 -8 -151.5t-33.5 -118t-82 -92.5t-144.5 -44v-4q248 -18 248 -276v-408h-174v326q0 156 -53.5 222t-205.5 66h-559zM315 768h537q193 6 247 74.5t54 269.5q0 82 -8 127t-39 81t-91.5 49t-162.5 13h-537 v-614z" />
<glyph unicode="S" horiz-adv-x="1288" d="M637 709q-35 2 -98.5 6t-96 7t-85 9t-81 17.5t-66.5 30t-58.5 47t-41 66.5t-28.5 91t-8 119q0 102 14 175t49 122t77 79.5t112.5 45t139.5 19.5t175 5q86 0 137 -2t119 -10t107.5 -25.5t82.5 -49t65 -77t34 -112.5q9 -51 9 -113q0 -21 -1 -43h-174q-2 72 -7 115 t-24.5 76.5t-40 49t-72 25t-99.5 11.5t-142 2q-133 0 -205 -9.5t-115 -40t-55 -75.5t-12 -131q0 -98 17.5 -154.5t75.5 -82t102 -31t161 -7.5q45 -2 70 -2q262 -14 336 -35q141 -39 184 -170q29 -84 29 -221q0 -92 -13.5 -161.5t-35 -117.5t-64.5 -80t-82 -49.5 t-111.5 -26.5t-130 -11t-155.5 -2q-131 0 -213 8t-161 36.5t-119 82t-59 143.5q-13 59 -13 136q0 40 4 85h174q0 -53 1 -92t7 -72.5t11 -57.5t23 -43l27 -31q10 -11 41 -20t48.5 -13.5t63.5 -6.5t74 -2h91q78 0 112.5 1t89 4.5t76 10.5t53 22.5t42 36t24.5 53t17.5 74.5 t3.5 99q0 55 -7.5 95.5t-17.5 67t-32.5 45t-42 27.5t-59.5 14t-69.5 7t-86 4.5t-97.5 6.5z" />
<glyph unicode="T" horiz-adv-x="1185" d="M680 1382v-1382h-174v1382h-498v154h1170v-154h-498z" />
<glyph unicode="U" horiz-adv-x="1509" d="M1190 1536h174v-1106q0 -121 -30.5 -204t-77 -130t-132.5 -71.5t-164.5 -30.5t-203.5 -6q-90 0 -141.5 2t-125 10t-115.5 24.5t-91.5 49t-75 79t-43 117t-17.5 160.5v1106h175v-1106q0 -80 10 -127t33.5 -82t77 -50t124 -22.5t189.5 -7.5q74 0 108.5 1t88 4.5t78 10.5 t58 21.5t47 34.5t29 51t20.5 72t5 94v1106z" />
<glyph unicode="V" horiz-adv-x="1316" d="M1143 1536h186l-545 -1536h-247l-549 1536h186l483 -1403h7z" />
<glyph unicode="W" horiz-adv-x="2299" d="M2296 1536l-484 -1536h-264l-401 1382h-4l-408 -1382h-260l-471 1536h178l418 -1403h4l414 1403h256l409 -1403h5l428 1403h180z" />
<glyph unicode="X" horiz-adv-x="1337" d="M1313 1536l-492 -741l529 -795h-205l-467 707l-477 -707h-213l549 795l-504 741h209l436 -657l430 657h205z" />
<glyph unicode="Y" horiz-adv-x="1294" d="M1307 1536l-582 -895v-641h-174v641l-563 895h202l455 -719l455 719h207z" />
<glyph unicode="Z" horiz-adv-x="1304" d="M1231 1536v-162l-967 -1220h987v-154h-1198v152l965 1230h-936v154h1149z" />
<glyph unicode="[" horiz-adv-x="636" d="M113 1548h397v-153h-223v-1549h223v-153h-397v1855z" />
<glyph unicode="\" horiz-adv-x="569" d="M485 -231l-587 1767h190l584 -1767h-187z" />
<glyph unicode="]" horiz-adv-x="636" d="M524 -307h-397v153h223v1549h-223v153h397v-1855z" />
<glyph unicode="^" horiz-adv-x="1196" d="M526 1536h144l424 -1001h-164l-332 800l-332 -800h-164z" />
<glyph unicode="_" horiz-adv-x="1024" d="M1024 -154v-102h-1024v102h1024z" />
<glyph unicode="`" horiz-adv-x="692" d="M236 1522l303 -232l-54 -84l-331 205z" />
<glyph unicode="a" d="M539 119q61 0 97 2t86 12t76.5 30.5t46 59.5t19.5 96q0 59 -16.5 98.5t-36.5 60t-71.5 30.5t-86.5 11t-114 1q-158 0 -214.5 -31.5t-56.5 -154.5q0 -143 56.5 -179t214.5 -36zM1030 0h-162v111l-4 4q-29 -57 -93 -87t-118.5 -35t-142.5 -5q-205 0 -307.5 65.5 t-102.5 259.5q0 109 27 177.5t85 103.5t128 46t180 11q313 0 338 -108h10v198q0 137 -65.5 176t-220.5 39q-43 0 -66.5 -1t-62.5 -4t-60.5 -13t-46 -25.5t-35 -42t-10.5 -61.5v-37h-168v23q0 80 23.5 136t57.5 87t95.5 47t115.5 19t138 3q92 0 153.5 -5t127 -24.5t102.5 -57 t60.5 -104.5t23.5 -163v-733z" />
<glyph unicode="b" horiz-adv-x="1175" d="M903 537q0 266 -52 342.5t-245 76.5q-86 0 -140 -15t-87 -42t-49.5 -84t-20.5 -115.5t-4 -162.5q0 -258 60.5 -338t240.5 -80q86 0 141.5 17.5t87 43t47 85t18.5 114t3 158.5zM139 0v1536h162v-600h4q57 152 346 151q135 0 221 -36.5t128 -115.5t56.5 -168t14.5 -230 q0 -145 -13.5 -235.5t-56.5 -168.5t-128 -111.5t-222 -33.5q-272 0 -346 143l-4 -4v-127h-162z" />
<glyph unicode="c" horiz-adv-x="1118" d="M872 389h162v-59q0 -88 -23.5 -151.5t-62.5 -100.5t-100.5 -57.5t-122.5 -26.5t-147 -6q-111 0 -190 13t-132 47t-84 74t-47 112.5t-20.5 142t-4.5 182.5q0 143 16.5 232.5t62.5 161t137.5 103t234.5 31.5q113 0 184.5 -10t142 -41.5t104.5 -101.5t34 -180v-29h-162v33 q0 57 -14.5 95t-34 58.5t-62.5 30.5t-78.5 12t-103.5 2q-63 0 -107 -8t-76 -18t-52.5 -40t-32.5 -55.5t-17.5 -83t-6.5 -103.5t-1 -134t2 -135t12.5 -100.5t31 -77t57.5 -46t91 -29.5t134 -7q162 0 219 39t57 178v53z" />
<glyph unicode="d" horiz-adv-x="1175" d="M573 119q186 0 242.5 82t56.5 336q0 238 -55 328.5t-244 90.5q-133 0 -192 -27.5t-86 -113.5t-27 -278q0 -141 13.5 -223.5t53.5 -126.5t92 -56t146 -12zM872 0v135l-4 4q-74 -152 -346 -151q-139 0 -226 36.5t-129 117.5t-54.5 167t-12.5 228q0 111 7.5 183.5t31 148 t68.5 119.5t124 71.5t191 27.5q293 0 346 -145h4v594h162v-1536h-162z" />
<glyph unicode="e" horiz-adv-x="1157" d="M883 326h166v-39q0 -82 -27 -140.5t-64.5 -89t-104.5 -47t-122 -19.5t-141 -3q-158 0 -252 26.5t-146.5 96t-69 165t-16.5 261.5q0 334 96.5 442t387.5 108q137 0 219 -18t139.5 -71.5t79 -144.5t21.5 -243v-108h-775q0 -94 3.5 -147.5t15.5 -102.5t29.5 -70.5t56.5 -38 t86 -20.5t125 -4q176 0 234.5 28.5t58.5 137.5v41zM274 633h607q-4 121 -13.5 180t-45.5 95t-83 42t-149 6q-111 0 -171.5 -13t-92 -58t-39 -93t-13.5 -159z" />
<glyph unicode="f" horiz-adv-x="618" d="M342 1075h285v-131h-285v-944h-162v944h-164v131h164v129q0 197 74 270.5t272 73.5q35 0 101 -4v-131q-66 4 -101 4q-117 0 -150.5 -41t-33.5 -155v-146z" />
<glyph unicode="g" horiz-adv-x="1173" d="M567 119q66 0 116 12t83 27.5t54.5 50.5t33.5 61.5t17.5 79.5t6.5 86t1 101q0 102 -4.5 159.5t-21.5 114.5t-51 85t-90.5 44t-144.5 16q-49 0 -89 -6t-69.5 -13t-51.5 -28l-35 -33q-14 -13 -25 -50l-15 -54q-5 -18 -7.5 -69.5t-2.5 -75.5v-90q0 -207 15 -265 q33 -119 170 -145q47 -8 110 -8zM1040 1075v-1202q0 -199 -126 -274.5t-347 -75.5q-84 0 -143 6t-119.5 27.5t-96.5 58.5t-55 102q-16 54 -16 125v31h162q0 -143 60.5 -181t207.5 -38q166 0 238 43t74 188v248h-5q-49 -145 -346 -145q-250 0 -337 127t-87 422 q0 147 14.5 239t58.5 168t130 109.5t221 33.5q131 0 217 -30.5t129 -118.5l5 2v135h161z" />
<glyph unicode="h" horiz-adv-x="1187" d="M303 1536v-592h4q57 143 332 143q219 0 313.5 -78.5t91.5 -293.5v-715h-161v727q0 141 -56.5 185t-201.5 44q-195 0 -258.5 -69.5t-63.5 -259.5v-627h-162v1536h162z" />
<glyph unicode="i" horiz-adv-x="440" d="M301 1075v-1075h-162v1075h162zM301 1536v-178h-162v178h162z" />
<glyph unicode="j" horiz-adv-x="428" d="M301 1075v-1204q-2 -72 -10 -118t-31.5 -92t-71 -67.5t-118.5 -21.5q-35 0 -80 10v125q6 0 16 -1t17 -1q20 0 37.5 3t29.5 13l22 18q9 7 14 24.5t8 26.5t4 31.5t1 33.5v35v34v1151h162zM301 1536v-178h-162v178h162z" />
<glyph unicode="k" horiz-adv-x="997" d="M301 1536v-889h66l387 428h198l-460 -493l544 -582h-213l-456 516h-66v-516h-162v1536h162z" />
<glyph unicode="l" horiz-adv-x="438" d="M301 1536v-1536h-162v1536h162z" />
<glyph unicode="m" horiz-adv-x="1882" d="M297 1075v-166h4q74 178 358 178q117 0 212.5 -40.5t119.5 -137.5q90 178 383 178q205 0 289 -88t84 -290v-709h-162v692q0 147 -44 205.5t-191 58.5q-178 0 -253 -63.5t-75 -233.5v-659h-162v721q-2 70 -7 99.5t-26.5 68.5t-71.5 53t-134 14q-164 0 -244 -73.5 t-80 -235.5v-647h-162v1075h162z" />
<glyph unicode="n" horiz-adv-x="1187" d="M303 1075v-131h4q57 143 332 143q219 0 313.5 -78.5t91.5 -293.5v-715h-161v727q0 141 -56.5 185t-201.5 44q-195 0 -258.5 -69.5t-63.5 -259.5v-627h-162v1075h162z" />
<glyph unicode="o" d="M106 536.5q0 178.5 17.5 278.5t73 166t143.5 86t243.5 20t243.5 -20t143.5 -86t73 -166t17.5 -278.5t-17.5 -278.5t-73 -164.5t-143.5 -85t-243.5 -20.5t-243.5 20.5t-143.5 85t-73 164.5t-17.5 278.5zM274 536.5q0 -104.5 2.5 -162t14.5 -111.5t29.5 -76.5t55.5 -41 t84 -22.5t124 -4t124 4t83.5 22.5t55 41t30 76.5t14.5 111.5t2 162t-2 163t-14.5 111.5t-30 76.5t-55 42t-83.5 22.5t-124 4t-124 -4t-84 -22.5t-55.5 -42t-29.5 -76.5t-14.5 -111.5t-2.5 -163z" />
<glyph unicode="p" horiz-adv-x="1173" d="M602 956q-66 0 -114 -10t-80.5 -22.5t-54 -45t-33 -56t-16.5 -80t-6 -92.5t-1 -113q0 -90 4 -143.5t20.5 -113t48 -90t90 -51t142.5 -20.5q186 0 241.5 77.5t55.5 340.5q0 135 -7 203.5t-38 124t-89.5 73.5t-162.5 18zM297 1075v-131l4 -4q78 147 346 147 q115 0 194 -28.5t123 -70.5t67.5 -119.5t29.5 -148.5t6 -183q0 -317 -90 -433t-330 -116q-279 0 -346 139h-4v-592h-162v1540h162z" />
<glyph unicode="q" horiz-adv-x="1177" d="M582 119q100 0 160.5 23.5t89 84t35.5 125t7 185.5q0 76 -1 118.5t-7 95t-19 79t-36 55t-57.5 42t-82.5 21.5t-114 8q-117 0 -172 -27.5t-83 -116.5t-28 -275q0 -78 1 -119t7.5 -94.5t18.5 -79t33.5 -55t54.5 -42t80 -20.5t113 -8zM1040 1075v-1540h-161v588h-5 q-59 -135 -315 -135q-131 0 -210 20.5t-137 79.5t-82 166.5t-24 282.5q0 98 5.5 164.5t22 134t47 109.5t79.5 77t124 50t175 15q240 0 315 -145l5 4v129h161z" />
<glyph unicode="r" horiz-adv-x="905" d="M119 1075h157l-8 -133l4 -4q70 150 306 149q299 0 299 -303v-77h-154v71q0 100 -40 139t-140 39q-145 0 -206 -69q-57 -65 -57 -199q0 -9 1 -18v-670h-162v1075z" />
<glyph unicode="s" horiz-adv-x="1099" d="M991 836v-41h-168v41q0 33 -11 53t-26.5 31.5t-54.5 16.5t-67.5 6t-92.5 1h-94q-27 0 -72 -4t-61 -11t-38.5 -22.5t-29 -38t-6.5 -55.5q0 -125 34 -152.5t151 -31.5q25 -2 37 -2q35 -2 100 -4t99 -4.5t87 -9.5t82 -19t65 -35t53 -55.5t29.5 -82.5t12.5 -114 q0 -88 -25.5 -149.5t-61.5 -93t-102.5 -49t-119 -20.5t-140.5 -3q-86 0 -141 3t-126 17.5t-111.5 40t-69.5 73.5t-29 118v100h168v-84q0 -76 61.5 -100.5t247.5 -24.5q8 0 43 -1t49.5 0t45 4t46 9.5t37 18.5t33 29.5t19.5 44t8 61.5q0 49 -9 82t-18.5 50t-41 26.5t-50 11.5 t-74 3t-88.5 3q-25 2 -77 4t-77.5 4t-69.5 8.5t-67.5 14.5t-57.5 22.5t-51 35t-35.5 50t-26 69.5t-7.5 89q0 57 7.5 102.5t26 78t38 56t56 39t65.5 23.5t82 12t90 5t104 1q72 0 118 -2t109.5 -16t100.5 -38.5t64.5 -74.5t27.5 -120z" />
<glyph unicode="t" horiz-adv-x="749" d="M709 1075v-131h-416v-682q2 -86 31.5 -114.5t119.5 -28.5q55 0 88 12t45.5 42t15.5 54.5t3 73.5v80h154v-80q0 -162 -73 -237.5t-237 -75.5q-186 0 -247.5 66.5t-61.5 256.5v633h-143v131h143v260h162v-260h416z" />
<glyph unicode="u" d="M860 0v143h-4q-68 -156 -336 -155q-211 0 -298 91t-87 306v690h162v-690q0 -150 38 -208t183 -58q186 0 265 56t79 237v663h162v-1075h-164z" />
<glyph unicode="v" horiz-adv-x="927" d="M936 1075l-361 -1075h-227l-356 1075h164l305 -952h4l295 952h176z" />
<glyph unicode="w" horiz-adv-x="1544" d="M1538 1075l-301 -1075h-236l-229 963h-4l-231 -963h-238l-291 1075h166l244 -962h4l235 962h232l233 -962h4l244 962h168z" />
<glyph unicode="x" horiz-adv-x="929" d="M897 1075l-342 -514l383 -561h-195l-278 434l-279 -434h-194l389 561l-348 514h182l250 -393l244 393h188z" />
<glyph unicode="y" horiz-adv-x="894" d="M903 1075l-309 -1151q-57 -199 -100 -268q-86 -133 -263 -133q-18 0 -73 10v125q27 -6 57 -6q47 0 83 22.5t58.5 67.5t34.5 81t26.5 96.5t20.5 80.5h-57l-389 1075h166l331 -956h5l241 956h168z" />
<glyph unicode="z" horiz-adv-x="929" d="M881 1075v-149l-641 -795h641v-131h-830v150l641 794h-588v131h777z" />
<glyph unicode="{" horiz-adv-x="684" d="M98 545v153q98 12 129 75t31 196v336q0 98 59.5 170.5t108.5 72.5h170v-153h-90q-43 0 -58.5 -31t-15.5 -94v-334q0 -96 -37 -174t-62.5 -101.5t-47.5 -39.5q147 -115 147 -316v-332q0 -66 15.5 -96.5t58.5 -30.5h90v-153h-170q-49 0 -108.5 71.5t-59.5 172.5v335 q0 131 -31 196t-129 77z" />
<glyph unicode="|" horiz-adv-x="532" d="M344 1536v-2048h-154v2048h154z" />
<glyph unicode="}" horiz-adv-x="684" d="M586 696v-153q-98 -12 -129 -74.5t-31 -196.5v-335q0 -98 -59.5 -171t-108.5 -73h-170v153h90q43 0 58.5 31t15.5 94v334q0 96 37 174t62.5 101.5t47.5 40.5q-147 115 -147 315v332q0 66 -15.5 96.5t-58.5 30.5h-90v153h170q49 0 108.5 -71.5t59.5 -171.5v-336 q0 -131 31 -196t129 -77z" />
<glyph unicode="~" horiz-adv-x="1196" d="M246 440h-144q4 84 22.5 150.5t71 122t132.5 63.5q80 6 137 -28l299 -181q53 -31 96 -26q53 0 74.5 52t15.5 122h144q10 -115 -57.5 -222.5t-180.5 -107.5q-84 -4 -184 57l-246 156q-39 33 -82 33t-73.5 -58.5t-24.5 -132.5z" />
<glyph unicode="&#xa1;" horiz-adv-x="552" d="M362 1075v-209h-182v209h182zM180 -461l17 1112h149l16 -1112h-182z" />
<glyph unicode="&#xa2;" horiz-adv-x="1413" d="M614 291v833q-51 -2 -88 -13t-62.5 -23.5t-41.5 -45t-25.5 -55t-13.5 -77t-5 -88.5t-1 -109q0 -246 40.5 -330t196.5 -92zM614 1407h134v-150q184 -4 282 -83.5t92 -278.5h-164q8 129 -38 177t-172 52v-833q127 0 179 41t54 168v59h164v-59q-4 -195 -99.5 -270.5 t-297.5 -71.5v-170h-134v170q-109 -2 -186.5 27.5t-120.5 75.5t-67.5 125t-30.5 150.5t-6 176.5q0 106 6 177t30.5 144.5t67.5 117.5t120 73.5t187 31.5v150z" />
<glyph unicode="&#xa3;" horiz-adv-x="1413" d="M905 743v-143h-436v-127q2 -53 0 -102t-11 -89t-38 -78t-78 -69l4 -4l991 19v-150h-1192v131q53 8 86 39t46.5 86t15.5 91t2 104v22v127h-189v143h189v344q0 150 28.5 242t95 140.5t149.5 63.5t220 15q311 0 416 -85t105 -353v-33h-164v33q0 184 -57.5 234.5t-262.5 50.5 q-90 0 -141 -2t-95 -15.5t-62.5 -29t-34 -56.5t-18.5 -83t-5 -122v-344h436z" />
<glyph unicode="&#xa4;" horiz-adv-x="1413" d="M274 1018l111 117l119 -121q100 45 190 49q102 4 209 -49l115 110l121 -125l-119 -112q39 -59 53 -174q4 -106 -61 -217l116 -117l-118 -113l-109 113q-100 -63 -205 -68q-74 -2 -190 51l-111 -104l-112 121l100 104q-63 80 -59 213q0 139 69 199zM694 444q90 0 168 65.5 t78 186.5q0 111 -78 172.5t-168 61.5t-165.5 -62.5t-71.5 -177.5q-4 -117 72.5 -181.5t164.5 -64.5z" />
<glyph unicode="&#xa5;" horiz-adv-x="1413" d="M1034 1049h209v-144h-297l-139 -229h436v-144h-457v-532h-174v532h-442v144h422l-137 229h-285v144h201l-293 487h203l430 -719l424 719h200z" />
<glyph unicode="&#xa6;" horiz-adv-x="532" d="M344 -358h-154v716h154v-716zM344 1382v-716h-154v716h154z" />
<glyph unicode="&#xa7;" horiz-adv-x="1413" d="M518 424l299 -84q152 -45 209 1t57 208q0 20 -3 37.5t-12 32t-14 24.5t-22.5 21.5l-25 16.5t-30.5 13l-30 11q-6 2 -33.5 9t-31.5 9l-285 84q-145 51 -207.5 12t-62.5 -196q0 -55 9 -89t43 -55.5t53 -29t87 -25.5zM852 174l-426 113q-156 43 -205 103.5t-49 223.5 q0 119 36 189.5t140 89.5v4q-113 57 -112 266q0 92 10 156.5t39.5 107.5t61.5 67t95.5 36t118.5 15t156 3q109 0 178.5 -5t128.5 -22.5t90 -43t53.5 -73.5t29.5 -109.5t9 -153.5h-153q0 63 -3 101t-16.5 71t-33 48t-61.5 26.5t-91 14.5t-131 3q-188 0 -234 -14 q-84 -29 -92 -148q-2 -20 -2 -43q0 -49 1 -77.5t14.5 -54.5t21.5 -37t44 -26.5t58.5 -22.5l87.5 -26l299 -84l56 -15q41 -11 53 -15l45 -16q33 -11 44 -18l35 -22q24 -14 33 -27l23 -34q14 -20 19.5 -44t9.5 -53.5t4 -64.5q0 -258 -150 -301v-4q66 -23 102 -74t44 -101 t8 -128q0 -66 -8 -118t-19.5 -92t-36 -69.5t-46 -50t-61.5 -34t-70.5 -21.5t-85 -11t-92.5 -4t-105 -1q-109 0 -173.5 4t-134 17t-105.5 41t-67.5 75t-44 118.5t-12.5 172.5h154q0 -55 1 -78t6 -61t14.5 -51t28.5 -35.5t46 -28.5l68 -17q41 -10 93 -12t126 -2q190 0 239 14 q111 29 127 166q4 33 4 70q0 117 -41.5 153.5t-164.5 67.5z" />
<glyph unicode="&#xa8;" horiz-adv-x="897" d="M334 1337v-151h-180v151h180zM743 1337v-151h-180v151h180z" />
<glyph unicode="&#xa9;" horiz-adv-x="1597" d="M801 1548q324 0 552 -228t228 -552q0 -326 -228.5 -553t-551.5 -227q-326 0 -555.5 227t-229.5 553q0 324 229.5 552t555.5 228zM801 1425q-272 0 -465 -191.5t-193 -461.5q0 -274 192.5 -467.5t465 -193.5t463 193.5t190.5 467.5q0 270 -191.5 461.5t-461.5 191.5z M1075 625h123q-14 -137 -118.5 -220t-243.5 -83q-195 0 -315 129t-120 323q0 197 116 323t312 126q143 0 245 -79t124 -216h-123q-16 90 -81.5 140t-162.5 50q-150 0 -228.5 -94t-78.5 -248q0 -150 83 -250t229 -100q94 0 160.5 52.5t78.5 146.5z" />
<glyph unicode="&#xaa;" horiz-adv-x="901" d="M637 891v49l-4 4q-25 -31 -68 -46t-73.5 -17t-83.5 -2q-129 0 -199 41t-70 159q0 125 65.5 169t201.5 44q170 0 217 -51q0 47 -1 68.5t-5.5 52.5t-14.5 42t-28.5 24.5t-47 17.5t-69.5 4q-104 0 -140 -17.5t-30 -82.5h-123q0 55 16.5 94t39 59.5t63.5 30.5t73.5 12t85.5 2 q59 0 97.5 -3t82.5 -15t68.5 -34.5t41 -63.5t13.5 -101v-440h-108zM426 977q39 0 60.5 1t51 6t45 16.5t28 32t12.5 50.5q0 72 -41 91.5t-136 19.5q-106 0 -142 -17.5t-36 -84.5q0 -41 8.5 -64.5t32 -35t47 -13.5t70.5 -2z" />
<glyph unicode="&#xab;" horiz-adv-x="1030" d="M391 1178l119 -72l-242 -514l269 -518l-113 -74l-309 592zM770 1178l119 -72l-242 -514l268 -518l-112 -74l-309 592z" />
<glyph unicode="&#xac;" horiz-adv-x="1196" d="M940 264v400h-838v153h992v-553h-154z" />
<glyph unicode="&#xad;" horiz-adv-x="534" d="M0 637h535v-154h-535v154z" />
<glyph unicode="&#xae;" horiz-adv-x="1597" d="M801 1548q324 0 552 -228t228 -552q0 -326 -228.5 -553t-551.5 -227q-326 0 -555.5 227t-229.5 553q0 324 229.5 552t555.5 228zM801 1425q-272 0 -465 -191.5t-193 -461.5q0 -274 192.5 -467.5t465 -193.5t463 193.5t190.5 467.5q0 270 -191.5 461.5t-461.5 191.5z M930 725l260 -395h-137l-250 383h-170v-383h-123v874h381q311 0 311 -231q0 -123 -73.5 -183.5t-198.5 -64.5zM633 1100v-283h229q217 0 217 158q0 125 -213 125h-233z" />
<glyph unicode="&#xaf;" horiz-adv-x="888" d="M162 1327h565v-131h-565v131z" />
<glyph unicode="&#xb0;" horiz-adv-x="819" d="M717 1241q0 -127 -90 -217t-217 -90t-217.5 90t-90.5 217q-2 127 89.5 217t218.5 90t217 -90t90 -217zM614 1241q0 84 -61 144.5t-145 60.5q-82 0 -142.5 -60.5t-60.5 -144.5q0 -86 60.5 -145.5t144.5 -59.5t144 59.5t60 145.5z" />
<glyph unicode="&#xb1;" horiz-adv-x="1196" d="M522 1075h154v-311h418v-154h-418v-311h-154v311h-420v154h420v311zM102 20v154h992v-154h-992z" />
<glyph unicode="&#xb2;" horiz-adv-x="847" d="M215 741h586v-123h-719v156q0 90 18.5 144.5t69.5 84t103.5 40t158.5 20.5q152 16 180 31q53 27 58 131v30q0 115 -40 142.5t-175 27.5q-164 0 -203 -24.5t-37 -128.5v-47h-133v47q0 86 9 130t47 82t113 51t204 13q203 0 275.5 -59t72.5 -234q0 -178 -74 -239.5 t-270 -75.5q-152 -10 -198 -36.5t-46 -115.5v-47z" />
<glyph unicode="&#xb3;" horiz-adv-x="847" d="M367 1040v113h118q115 2 142 18q39 23 39 119q0 98 -38 122t-200 24q-129 0 -165 -23.5t-40 -116.5v-39h-133v39q0 86 20.5 138.5t71.5 77t105.5 30.5t154.5 6q49 0 68.5 -1t61.5 -3t59 -6l47 -12q31 -8 43 -20l32 -29q19 -18 26 -42t13.5 -55.5t6.5 -70.5 q0 -104 -32 -156.5t-132 -58.5v-4q109 -8 146.5 -56.5t37.5 -154.5q0 -78 -19.5 -130.5t-45 -80t-85 -41t-102.5 -15.5t-135 -2q-190 0 -273 47.5t-81 198.5v62h133v-52q0 -98 36 -118.5t185 -24.5q172 -2 213 23.5t41 144.5q0 45 -10 73.5t-21.5 44t-43 22.5t-53 8t-73.5 1 h-118z" />
<glyph unicode="&#xb4;" horiz-adv-x="692" d="M459 1522l80 -111l-330 -205l-55 84z" />
<glyph unicode="&#xb5;" d="M864 0v143h-4q-68 -156 -336 -155q-143 0 -223 41v-494h-162v1540h162v-690q0 -150 38 -208t183 -58q186 0 265 57t79 236v663h162v-1075h-164z" />
<glyph unicode="&#xb6;" horiz-adv-x="1413" d="M1343 -428h-153v1821h-182v-1821h-154v1030h-358q-104 0 -174 16.5t-131.5 62.5t-91 141.5t-29.5 242.5q0 242 88 356.5t338 114.5h847v-1964zM854 745v648h-358q-72 0 -118 -12.5t-74 -32t-41 -64.5t-16 -90t-3 -129q0 -197 61.5 -258.5t190.5 -61.5h358z" />
<glyph unicode="&#xb7;" horiz-adv-x="706" d="M444 686v-209h-182v209h182z" />
<glyph unicode="&#xb8;" horiz-adv-x="552" d="M266 -82l111 -61l-158 -219l-88 47z" />
<glyph unicode="&#xb9;" horiz-adv-x="847" d="M551 1548v-930h-133v832l-256 -262l-70 84l275 276h184z" />
<glyph unicode="&#xba;" horiz-adv-x="901" d="M461 1548q180 0 236.5 -65.5t56.5 -263.5q0 -104 -8.5 -161t-38 -102t-88 -61t-158.5 -16q-203 0 -258.5 63.5t-55.5 276.5q0 100 9.5 154t41 98.5t94.5 60.5t169 16zM461 1450q-131 0 -161 -37t-30 -194q0 -68 1 -103t9.5 -66.5t16.5 -43t35.5 -19.5t50.5 -9t78 -1 q117 0 143.5 42t26.5 200q0 152 -25.5 191.5t-144.5 39.5z" />
<glyph unicode="&#xbb;" horiz-adv-x="1030" d="M520 1106l119 72l276 -586l-309 -592l-112 74l268 518zM141 1106l119 72l277 -586l-310 -592l-112 74l268 518z" />
<glyph unicode="&#xbc;" horiz-adv-x="2119" d="M1874 922v-613h135v-123h-135v-186h-133v186h-551v148l496 588h188zM1645 1536l-1043 -1536h-137l1036 1536h144zM1741 309v525h-6l-443 -525h449zM571 1536v-922h-133v824l-256 -262l-69 84l274 276h184z" />
<glyph unicode="&#xbd;" horiz-adv-x="2119" d="M1606 1536l-1043 -1536h-137l1036 1536h144zM371 1536h184v-922h-133v824l-256 -262l-70 84zM1436 123h585v-123h-718v156q0 90 18 144t69.5 84t103.5 40t159 20q152 16 180 31q53 27 57 131v31q0 115 -40 142.5t-175 27.5q-164 0 -202.5 -24.5t-36.5 -129.5v-47h-133v47 q0 86 9 130t47 82t112.5 51.5t203.5 13.5q203 0 275.5 -59.5t72.5 -233.5q0 -178 -73.5 -239.5t-270.5 -75.5q-152 -10 -197.5 -37t-45.5 -115v-47z" />
<glyph unicode="&#xbe;" horiz-adv-x="2119" d="M1894 922v-613h136v-123h-136v-186h-133v186h-551v148l496 588h188zM1761 309v525h-6l-442 -525h448zM1741 1536l-1043 -1536h-137l1036 1536h144zM381 1040v113h119q115 2 141 18q39 23 39 119q0 98 -38 122t-200 24q-129 0 -164.5 -23.5t-39.5 -116.5v-39h-134v39 q0 86 20.5 138.5t72 77t105.5 30.5t155 6q49 0 68.5 -1t61.5 -3t58 -6l47 -12q31 -8 43 -20l32 -29q19 -18 26.5 -42t13.5 -55.5t6 -70.5q0 -104 -31.5 -156.5t-132.5 -58.5v-4q109 -8 147 -56.5t38 -154.5q0 -57 -9.5 -99.5t-23 -71t-43 -48t-51 -29.5t-69.5 -14.5 t-78 -5.5t-93 -1h-21q-190 0 -273 47.5t-81 198.5v62h133v-52q0 -98 36 -118.5t185 -24.5q172 -2 213 23.5t41 144.5q0 45 -10 73.5t-21.5 44t-43 22.5t-53 8t-72.5 1h-119z" />
<glyph unicode="&#xbf;" horiz-adv-x="1196" d="M586 633h174v-55q0 -145 -54.5 -203t-234.5 -125q-94 -37 -127 -62.5t-48 -79t-15 -176.5q0 -168 56 -212t251 -44q111 0 162 5.5t96 31t58.5 76.5t13.5 143v88h163v-88q-2 -113 -23.5 -187.5t-56 -118.5t-100 -66.5t-133.5 -29.5t-180 -7q-262 0 -366.5 84t-104.5 325 q0 141 14 214t73.5 136.5t180.5 104.5q135 47 168 76t33 115v55zM762 1075v-209h-182v209h182z" />
<glyph unicode="&#xc0;" horiz-adv-x="1402" d="M1090 326h-777l-118 -326h-183l559 1536h246l574 -1536h-181zM1040 469l-342 924l-338 -924h680zM592 1982l303 -231l-53 -84l-332 205z" />
<glyph unicode="&#xc1;" horiz-adv-x="1402" d="M1090 326h-777l-118 -326h-183l559 1536h246l574 -1536h-181zM1040 469l-342 924l-338 -924h680zM815 1982l80 -110l-330 -205l-55 84z" />
<glyph unicode="&#xc2;" horiz-adv-x="1402" d="M1090 326h-777l-118 -326h-183l559 1536h246l574 -1536h-181zM1040 469l-342 924l-338 -924h680zM705 1968l354 -221l-49 -86l-305 156l-318 -156l-43 86z" />
<glyph unicode="&#xc3;" horiz-adv-x="1402" d="M1090 326h-777l-118 -326h-183l559 1536h246l574 -1536h-181zM1040 469l-342 924l-338 -924h680zM961 1872l88 -57q-88 -154 -211 -154q-47 0 -150 45q-102 43 -139 43q-10 0 -20.5 -2t-16.5 -4t-14.5 -9.5t-12.5 -9.5t-11 -13l-9 -14q-2 -3 -9 -16.5t-10 -15.5l-92 53 q78 152 197 152q43 0 149 -43q102 -45 142 -45q68 0 119 90z" />
<glyph unicode="&#xc4;" horiz-adv-x="1402" d="M1090 326h-777l-118 -326h-183l559 1536h246l574 -1536h-181zM1040 469l-342 924l-338 -924h680zM588 1798v-151h-180v151h180zM997 1798v-151h-180v151h180z" />
<glyph unicode="&#xc5;" horiz-adv-x="1402" d="M1090 326h-777l-118 -326h-183l559 1536h246l574 -1536h-181zM1040 469l-342 924l-338 -924h680zM524 1790q0 72 52.5 125t123.5 53q74 0 126.5 -53t52.5 -125q0 -74 -52.5 -126t-126.5 -52q-72 0 -124 52t-52 126zM602 1790q0 -41 28.5 -70.5t69.5 -29.5t71 29.5 t30 70.5t-30 70.5t-71 29.5t-69.5 -29.5t-28.5 -70.5z" />
<glyph unicode="&#xc6;" horiz-adv-x="2138" d="M1257 1382v-522h768v-143h-768v-563h805v-154h-979v317h-716l-179 -317h-204l847 1536h1231v-154h-805zM1083 471v911h-147l-490 -911h637z" />
<glyph unicode="&#xc7;" horiz-adv-x="1361" d="M694 -82l111 -61l-158 -219l-88 47zM784 -12h-245q-211 0 -329 127t-118 356v594q0 127 33 217t84 141.5t139 80t174 36.5t211 8h144q236 0 327.5 -103.5t91.5 -338.5v-49h-174v43q0 168 -53 231.5t-217 63.5h-98q-285 0 -386.5 -60.5t-101.5 -263.5v-422 q0 -102 2 -160.5t12.5 -125t30 -101.5t53 -65.5t85 -43t122.5 -12.5h207q215 0 290 49.5t75 208.5v123h174v-143q0 -102 -27.5 -175t-70.5 -115t-116 -64.5t-144 -29.5t-175 -7z" />
<glyph unicode="&#xc8;" horiz-adv-x="1146" d="M258 1382v-522h778v-143h-778v-563h813v-154h-987v1536h987v-154h-813zM463 1982l303 -231l-53 -84l-332 205z" />
<glyph unicode="&#xc9;" horiz-adv-x="1146" d="M258 1382v-522h778v-143h-778v-563h813v-154h-987v1536h987v-154h-813zM686 1982l80 -110l-330 -205l-55 84z" />
<glyph unicode="&#xca;" horiz-adv-x="1146" d="M258 1382v-522h778v-143h-778v-563h813v-154h-987v1536h987v-154h-813zM578 1968l354 -221l-49 -86l-305 156l-318 -156l-43 86z" />
<glyph unicode="&#xcb;" horiz-adv-x="1146" d="M258 1382v-522h778v-143h-778v-563h813v-154h-987v1536h987v-154h-813zM459 1798v-151h-180v151h180zM868 1798v-151h-180v151h180z" />
<glyph unicode="&#xcc;" horiz-adv-x="466" d="M322 1536v-1536h-175v1536h175zM123 1982l303 -231l-53 -84l-332 205z" />
<glyph unicode="&#xcd;" horiz-adv-x="466" d="M322 1536v-1536h-175v1536h175zM346 1982l80 -110l-330 -205l-55 84z" />
<glyph unicode="&#xce;" horiz-adv-x="466" d="M322 1536v-1536h-175v1536h175zM238 1968l354 -221l-49 -86l-305 156l-318 -156l-43 86z" />
<glyph unicode="&#xcf;" horiz-adv-x="466" d="M322 1536v-1536h-175v1536h175zM119 1798v-151h-180v151h180zM528 1798v-151h-180v151h180z" />
<glyph unicode="&#xd0;" horiz-adv-x="1503" d="M143 862v674h748q74 0 128 -6t135 -40t133 -92.5t91 -175t39 -278.5v-366q0 -51 -4 -97.5t-18.5 -119t-48 -131t-84 -114t-135.5 -86t-195 -30.5h-789v719h-211v143h211zM317 1382v-520h424v-143h-424v-565h574q113 0 184.5 30.5t106.5 96t47 139.5t14 188v404 q0 45 -10 96t-40 118.5t-100.5 111.5t-172.5 44h-603z" />
<glyph unicode="&#xd1;" horiz-adv-x="1603" d="M1464 1536v-1536h-284l-863 1393h-4v-1393h-174v1536h287l860 -1403h4v1403h174zM1061 1872l88 -57q-88 -154 -211 -154q-47 0 -150 45q-102 43 -139 43q-10 0 -20.5 -2t-16.5 -4t-14 -9.5t-12 -9.5t-12 -13l-9 -14q-2 -3 -9 -16.5t-9 -15.5l-92 53q78 152 196 152 q41 0 150 -43q102 -45 141 -45q68 0 119 90z" />
<glyph unicode="&#xd2;" horiz-adv-x="1374" d="M584 1548h207q287 -2 393 -113.5t106 -402.5v-547q0 -272 -111.5 -384.5t-387.5 -112.5h-207q-276 0 -388 112.5t-112 384.5v547q0 291 106.5 402.5t393.5 113.5zM791 1395h-207q-197 0 -261.5 -71t-64.5 -292v-547q0 -113 17.5 -181t62.5 -104t98 -47.5t148 -11.5h207 q94 0 147 11.5t98 47.5t62.5 104.5t17.5 180.5v547q0 221 -64 292t-261 71zM537 1982l303 -231l-54 -84l-331 205z" />
<glyph unicode="&#xd3;" horiz-adv-x="1374" d="M584 1548h207q287 -2 393 -113.5t106 -402.5v-547q0 -272 -111.5 -384.5t-387.5 -112.5h-207q-276 0 -388 112.5t-112 384.5v547q0 291 106.5 402.5t393.5 113.5zM791 1395h-207q-197 0 -261.5 -71t-64.5 -292v-547q0 -113 17.5 -181t62.5 -104t98 -47.5t148 -11.5h207 q94 0 147 11.5t98 47.5t62.5 104.5t17.5 180.5v547q0 221 -64 292t-261 71zM801 1982l80 -110l-330 -205l-55 84z" />
<glyph unicode="&#xd4;" horiz-adv-x="1374" d="M584 1548h207q287 -2 393 -113.5t106 -402.5v-547q0 -272 -111.5 -384.5t-387.5 -112.5h-207q-276 0 -388 112.5t-112 384.5v547q0 291 106.5 402.5t393.5 113.5zM791 1395h-207q-197 0 -261.5 -71t-64.5 -292v-547q0 -113 17.5 -181t62.5 -104t98 -47.5t148 -11.5h207 q94 0 147 11.5t98 47.5t62.5 104.5t17.5 180.5v547q0 221 -64 292t-261 71zM690 1968l354 -221l-49 -86l-305 156l-317 -156l-43 86z" />
<glyph unicode="&#xd5;" horiz-adv-x="1374" d="M584 1548h207q287 -2 393 -113.5t106 -402.5v-547q0 -272 -111.5 -384.5t-387.5 -112.5h-207q-276 0 -388 112.5t-112 384.5v547q0 291 106.5 402.5t393.5 113.5zM791 1395h-207q-197 0 -261.5 -71t-64.5 -292v-547q0 -113 17.5 -181t62.5 -104t98 -47.5t148 -11.5h207 q94 0 147 11.5t98 47.5t62.5 104.5t17.5 180.5v547q0 221 -64 292t-261 71zM946 1872l88 -57q-88 -154 -211 -154q-47 0 -149 45q-102 43 -139 43q-10 0 -20.5 -2t-16.5 -4t-14.5 -9.5t-12.5 -9.5t-11 -13l-9 -14q-2 -3 -9.5 -16.5t-9.5 -15.5l-92 53q78 152 197 152 q41 0 149 -43q102 -45 141 -45q68 0 119 90z" />
<glyph unicode="&#xd6;" horiz-adv-x="1374" d="M584 1548h207q287 -2 393 -113.5t106 -402.5v-547q0 -272 -111.5 -384.5t-387.5 -112.5h-207q-276 0 -388 112.5t-112 384.5v547q0 291 106.5 402.5t393.5 113.5zM791 1395h-207q-197 0 -261.5 -71t-64.5 -292v-547q0 -113 17.5 -181t62.5 -104t98 -47.5t148 -11.5h207 q94 0 147 11.5t98 47.5t62.5 104.5t17.5 180.5v547q0 221 -64 292t-261 71zM573 1798v-151h-180v151h180zM983 1798v-151h-180v151h180z" />
<glyph unicode="&#xd7;" horiz-adv-x="1196" d="M102 893l101 102l395 -397l395 397l101 -102l-396 -395l396 -396l-101 -102l-395 397l-395 -397l-101 102l396 396z" />
<glyph unicode="&#xd8;" horiz-adv-x="1480" d="M1221 1145l-916 -887q49 -117 322 -117h278q182 0 249 82t67 260v662zM262 391l914 893q-29 66 -97.5 88.5t-173.5 22.5h-278q-233 0 -300 -83t-65 -325v-596zM1448 1538v-176l-94 -78q10 -18 17 -37.5t11 -44t7.5 -40t4.5 -46.5t1 -41v-46v-42v-504q0 -272 -119 -383.5 t-371 -111.5h-278q-158 0 -265.5 28.5t-179.5 124.5l-149 -139v166l92 90q-10 25 -23.5 95.5t-13.5 129.5v504q0 170 36 282.5t110.5 173t167 83t225.5 22.5h278q276 0 391 -147z" />
<glyph unicode="&#xd9;" horiz-adv-x="1509" d="M1190 1536h174v-1106q0 -121 -30.5 -204t-77 -130t-132.5 -71.5t-164.5 -30.5t-203.5 -6q-90 0 -141.5 2t-125 10t-115.5 24.5t-91.5 49t-75 79t-43 117t-17.5 160.5v1106h175v-1106q0 -80 10 -127t33.5 -82t77 -50t124 -22.5t189.5 -7.5q74 0 108.5 1t88 4.5t78 10.5 t58 21.5t47 34.5t29 51t20.5 72t5 94v1106zM563 1982l303 -231l-53 -84l-332 205z" />
<glyph unicode="&#xda;" horiz-adv-x="1509" d="M1190 1536h174v-1106q0 -121 -30.5 -204t-77 -130t-132.5 -71.5t-164.5 -30.5t-203.5 -6q-90 0 -141.5 2t-125 10t-115.5 24.5t-91.5 49t-75 79t-43 117t-17.5 160.5v1106h175v-1106q0 -80 10 -127t33.5 -82t77 -50t124 -22.5t189.5 -7.5q74 0 108.5 1t88 4.5t78 10.5 t58 21.5t47 34.5t29 51t20.5 72t5 94v1106zM868 1982l80 -110l-330 -205l-55 84z" />
<glyph unicode="&#xdb;" horiz-adv-x="1509" d="M1190 1536h174v-1106q0 -121 -30.5 -204t-77 -130t-132.5 -71.5t-164.5 -30.5t-203.5 -6q-90 0 -141.5 2t-125 10t-115.5 24.5t-91.5 49t-75 79t-43 117t-17.5 160.5v1106h175v-1106q0 -80 10 -127t33.5 -82t77 -50t124 -22.5t189.5 -7.5q74 0 108.5 1t88 4.5t78 10.5 t58 21.5t47 34.5t29 51t20.5 72t5 94v1106zM758 1968l354 -221l-49 -86l-305 156l-318 -156l-43 86z" />
<glyph unicode="&#xdc;" horiz-adv-x="1509" d="M1190 1536h174v-1106q0 -121 -30.5 -204t-77 -130t-132.5 -71.5t-164.5 -30.5t-203.5 -6q-90 0 -141.5 2t-125 10t-115.5 24.5t-91.5 49t-75 79t-43 117t-17.5 160.5v1106h175v-1106q0 -80 10 -127t33.5 -82t77 -50t124 -22.5t189.5 -7.5q74 0 108.5 1t88 4.5t78 10.5 t58 21.5t47 34.5t29 51t20.5 72t5 94v1106zM641 1798v-151h-180v151h180zM1051 1798v-151h-181v151h181z" />
<glyph unicode="&#xdd;" horiz-adv-x="1294" d="M1307 1536l-582 -895v-641h-174v641l-563 895h202l455 -719l455 719h207zM797 1982l80 -110l-330 -205l-55 84z" />
<glyph unicode="&#xde;" horiz-adv-x="1353" d="M121 0v1536h174v-299h608q207 0 287 -122t80 -343q0 -43 -1 -70.5t-8.5 -82t-20.5 -92.5t-41 -84t-66.5 -74.5t-99 -49t-138.5 -20.5h-600v-299h-174zM827 1083h-532v-630h450h74q23 0 64 3t57 8l46 14q30 9 41 24.5t28.5 37t23.5 51.5t11.5 69.5t5.5 89.5 q0 113 -10.5 176t-44 100t-81 47t-133.5 10z" />
<glyph unicode="&#xdf;" horiz-adv-x="1208" d="M170 0v1202q0 211 96 278.5t328 67.5q90 0 156.5 -10t133 -40t102.5 -93.5t36 -157.5q0 -201 -205 -256v-4q80 -12 134.5 -45t84 -72t45 -104.5t18.5 -116.5t3 -137q0 -96 -4 -159.5t-24.5 -139.5t-58.5 -120t-107.5 -74.5t-168.5 -30.5q-135 0 -221 66.5t-86 197.5v74 h154v-37q0 -170 153 -170q78 0 116 24.5t58.5 109.5t20.5 259q0 109 -8 172.5t-37 123.5t-92.5 87t-165.5 27h-135v131h100q166 0 212 41t46 129q0 127 -56.5 160.5t-203.5 33.5q-145 0 -203.5 -40t-58.5 -175v-1202h-162z" />
<glyph unicode="&#xe0;" d="M539 119q61 0 97 2t86 12t76.5 30.5t46 59.5t19.5 96q0 59 -16.5 98.5t-36.5 60t-71.5 30.5t-86.5 11t-114 1q-158 0 -214.5 -31.5t-56.5 -154.5q0 -143 56.5 -179t214.5 -36zM1030 0h-162v111l-4 4q-29 -57 -93 -87t-118.5 -35t-142.5 -5q-205 0 -307.5 65.5 t-102.5 259.5q0 109 27 177.5t85 103.5t128 46t180 11q313 0 338 -108h10v198q0 137 -65.5 176t-220.5 39q-43 0 -66.5 -1t-62.5 -4t-60.5 -13t-46 -25.5t-35 -42t-10.5 -61.5v-37h-168v23q0 80 23.5 136t57.5 87t95.5 47t115.5 19t138 3q92 0 153.5 -5t127 -24.5t102.5 -57 t60.5 -104.5t23.5 -163v-733zM432 1522l303 -232l-53 -84l-332 205z" />
<glyph unicode="&#xe1;" d="M539 119q61 0 97 2t86 12t76.5 30.5t46 59.5t19.5 96q0 59 -16.5 98.5t-36.5 60t-71.5 30.5t-86.5 11t-114 1q-158 0 -214.5 -31.5t-56.5 -154.5q0 -143 56.5 -179t214.5 -36zM1030 0h-162v111l-4 4q-29 -57 -93 -87t-118.5 -35t-142.5 -5q-205 0 -307.5 65.5 t-102.5 259.5q0 109 27 177.5t85 103.5t128 46t180 11q313 0 338 -108h10v198q0 137 -65.5 176t-220.5 39q-43 0 -66.5 -1t-62.5 -4t-60.5 -13t-46 -25.5t-35 -42t-10.5 -61.5v-37h-168v23q0 80 23.5 136t57.5 87t95.5 47t115.5 19t138 3q92 0 153.5 -5t127 -24.5t102.5 -57 t60.5 -104.5t23.5 -163v-733zM696 1522l80 -111l-330 -205l-55 84z" />
<glyph unicode="&#xe2;" d="M539 119q61 0 97 2t86 12t76.5 30.5t46 59.5t19.5 96q0 59 -16.5 98.5t-36.5 60t-71.5 30.5t-86.5 11t-114 1q-158 0 -214.5 -31.5t-56.5 -154.5q0 -143 56.5 -179t214.5 -36zM1030 0h-162v111l-4 4q-29 -57 -93 -87t-118.5 -35t-142.5 -5q-205 0 -307.5 65.5 t-102.5 259.5q0 109 27 177.5t85 103.5t128 46t180 11q313 0 338 -108h10v198q0 137 -65.5 176t-220.5 39q-43 0 -66.5 -1t-62.5 -4t-60.5 -13t-46 -25.5t-35 -42t-10.5 -61.5v-37h-168v23q0 80 23.5 136t57.5 87t95.5 47t115.5 19t138 3q92 0 153.5 -5t127 -24.5t102.5 -57 t60.5 -104.5t23.5 -163v-733zM588 1507l354 -221l-49 -86l-305 156l-318 -156l-43 86z" />
<glyph unicode="&#xe3;" d="M539 119q61 0 97 2t86 12t76.5 30.5t46 59.5t19.5 96q0 59 -16.5 98.5t-36.5 60t-71.5 30.5t-86.5 11t-114 1q-158 0 -214.5 -31.5t-56.5 -154.5q0 -143 56.5 -179t214.5 -36zM1030 0h-162v111l-4 4q-29 -57 -93 -87t-118.5 -35t-142.5 -5q-205 0 -307.5 65.5 t-102.5 259.5q0 109 27 177.5t85 103.5t128 46t180 11q313 0 338 -108h10v198q0 137 -65.5 176t-220.5 39q-43 0 -66.5 -1t-62.5 -4t-60.5 -13t-46 -25.5t-35 -42t-10.5 -61.5v-37h-168v23q0 80 23.5 136t57.5 87t95.5 47t115.5 19t138 3q92 0 153.5 -5t127 -24.5t102.5 -57 t60.5 -104.5t23.5 -163v-733zM844 1411l88 -57q-88 -154 -211 -154q-47 0 -150 45q-102 43 -139 43q-10 0 -20.5 -2t-16.5 -4t-14 -9t-12 -9t-12 -14l-9 -14q-2 -3 -9 -16.5t-9 -15.5l-92 53q78 152 196 152q41 0 150 -43q102 -45 141 -45q68 0 119 90z" />
<glyph unicode="&#xe4;" d="M539 119q61 0 97 2t86 12t76.5 30.5t46 59.5t19.5 96q0 59 -16.5 98.5t-36.5 60t-71.5 30.5t-86.5 11t-114 1q-158 0 -214.5 -31.5t-56.5 -154.5q0 -143 56.5 -179t214.5 -36zM1030 0h-162v111l-4 4q-29 -57 -93 -87t-118.5 -35t-142.5 -5q-205 0 -307.5 65.5 t-102.5 259.5q0 109 27 177.5t85 103.5t128 46t180 11q313 0 338 -108h10v198q0 137 -65.5 176t-220.5 39q-43 0 -66.5 -1t-62.5 -4t-60.5 -13t-46 -25.5t-35 -42t-10.5 -61.5v-37h-168v23q0 80 23.5 136t57.5 87t95.5 47t115.5 19t138 3q92 0 153.5 -5t127 -24.5t102.5 -57 t60.5 -104.5t23.5 -163v-733zM469 1337v-151h-180v151h180zM879 1337v-151h-181v151h181z" />
<glyph unicode="&#xe5;" d="M539 119q61 0 97 2t86 12t76.5 30.5t46 59.5t19.5 96q0 59 -16.5 98.5t-36.5 60t-71.5 30.5t-86.5 11t-114 1q-158 0 -214.5 -31.5t-56.5 -154.5q0 -143 56.5 -179t214.5 -36zM1030 0h-162v111l-4 4q-29 -57 -93 -87t-118.5 -35t-142.5 -5q-205 0 -307.5 65.5 t-102.5 259.5q0 109 27 177.5t85 103.5t128 46t180 11q313 0 338 -108h10v198q0 137 -65.5 176t-220.5 39q-43 0 -66.5 -1t-62.5 -4t-60.5 -13t-46 -25.5t-35 -42t-10.5 -61.5v-37h-168v23q0 80 23.5 136t57.5 87t95.5 47t115.5 19t138 3q92 0 153.5 -5t127 -24.5t102.5 -57 t60.5 -104.5t23.5 -163v-733zM408 1329q0 72 52 125t124 53q74 0 126 -53t52 -125q0 -74 -52.5 -126t-125.5 -52q-72 0 -124 52t-52 126zM485 1329q0 -41 29 -70.5t70 -29.5t70.5 29.5t29.5 70.5t-29.5 71t-70.5 30t-70 -30t-29 -71z" />
<glyph unicode="&#xe6;" horiz-adv-x="1908" d="M1036 633h606q-4 121 -13 180t-45 95t-83 42t-149 6q-111 0 -171.5 -13t-92 -58t-39 -93t-13.5 -159zM539 520q-158 0 -214.5 -31.5t-56.5 -154.5q0 -143 56.5 -179t214.5 -36q61 0 97 2t86 12t76.5 30.5t46 59.5t19.5 96q0 59 -16.5 98.5t-36.5 60t-71.5 30.5t-86 11 t-114.5 1zM868 543v198q0 137 -65.5 176t-220.5 39q-43 0 -66.5 -1t-62.5 -4t-60.5 -13t-46 -25.5t-35 -42t-10.5 -61.5v-37h-168v23q0 80 23.5 136t57.5 87t95.5 47t115.5 19t138 3h15q344 2 380 -135q70 135 394 135q137 0 219 -18t139 -71.5t78.5 -144.5t21.5 -243v-108 h-774q0 -94 3 -147.5t15.5 -102.5t30 -70.5t56.5 -38t86 -20.5t125 -4q176 0 234.5 28.5t58.5 137.5v41h165v-39q0 -82 -26.5 -140.5t-64.5 -89t-104.5 -47t-121.5 -19.5t-141 -3q-78 0 -128 4t-113.5 20.5t-105.5 54t-61 99.5h-4q-18 -57 -60 -95t-106.5 -54.5t-124 -22.5 t-139.5 -6q-205 0 -307.5 65.5t-102.5 259.5q0 109 27 177.5t85 103.5t128 46t180 11q313 0 338 -108h10z" />
<glyph unicode="&#xe7;" horiz-adv-x="1118" d="M571 -82l111 -61l-158 -219l-88 47zM872 389h162v-59q0 -88 -23.5 -151.5t-62.5 -100.5t-100.5 -57.5t-122.5 -26.5t-147 -6q-111 0 -190 13t-132 47t-84 74t-47 112.5t-20.5 142t-4.5 182.5q0 143 16.5 232.5t62.5 161t137.5 103t234.5 31.5q113 0 184.5 -10t142 -41.5 t104.5 -101.5t34 -180v-29h-162v33q0 57 -14.5 95t-34 58.5t-62.5 30.5t-78.5 12t-103.5 2q-63 0 -107 -8t-76 -18t-52.5 -40t-32.5 -55.5t-17.5 -83t-6.5 -103.5t-1 -134t2 -135t12.5 -100.5t31 -77t57.5 -46t91 -29.5t134 -7q162 0 219 39t57 178v53z" />
<glyph unicode="&#xe8;" horiz-adv-x="1157" d="M883 326h166v-39q0 -82 -27 -140.5t-64.5 -89t-104.5 -47t-122 -19.5t-141 -3q-158 0 -252 26.5t-146.5 96t-69 165t-16.5 261.5q0 334 96.5 442t387.5 108q137 0 219 -18t139.5 -71.5t79 -144.5t21.5 -243v-108h-775q0 -94 3.5 -147.5t15.5 -102.5t29.5 -70.5t56.5 -38 t86 -20.5t125 -4q176 0 234.5 28.5t58.5 137.5v41zM274 633h607q-4 121 -13.5 180t-45.5 95t-83 42t-149 6q-111 0 -171.5 -13t-92 -58t-39 -93t-13.5 -159zM428 1522l303 -232l-53 -84l-332 205z" />
<glyph unicode="&#xe9;" horiz-adv-x="1157" d="M883 326h166v-39q0 -82 -27 -140.5t-64.5 -89t-104.5 -47t-122 -19.5t-141 -3q-158 0 -252 26.5t-146.5 96t-69 165t-16.5 261.5q0 334 96.5 442t387.5 108q137 0 219 -18t139.5 -71.5t79 -144.5t21.5 -243v-108h-775q0 -94 3.5 -147.5t15.5 -102.5t29.5 -70.5t56.5 -38 t86 -20.5t125 -4q176 0 234.5 28.5t58.5 137.5v41zM274 633h607q-4 121 -13.5 180t-45.5 95t-83 42t-149 6q-111 0 -171.5 -13t-92 -58t-39 -93t-13.5 -159zM692 1522l80 -111l-330 -205l-55 84z" />
<glyph unicode="&#xea;" horiz-adv-x="1157" d="M883 326h166v-39q0 -82 -27 -140.5t-64.5 -89t-104.5 -47t-122 -19.5t-141 -3q-158 0 -252 26.5t-146.5 96t-69 165t-16.5 261.5q0 334 96.5 442t387.5 108q137 0 219 -18t139.5 -71.5t79 -144.5t21.5 -243v-108h-775q0 -94 3.5 -147.5t15.5 -102.5t29.5 -70.5t56.5 -38 t86 -20.5t125 -4q176 0 234.5 28.5t58.5 137.5v41zM274 633h607q-4 121 -13.5 180t-45.5 95t-83 42t-149 6q-111 0 -171.5 -13t-92 -58t-39 -93t-13.5 -159zM582 1507l354 -221l-49 -86l-305 156l-318 -156l-43 86z" />
<glyph unicode="&#xeb;" horiz-adv-x="1157" d="M883 326h166v-39q0 -82 -27 -140.5t-64.5 -89t-104.5 -47t-122 -19.5t-141 -3q-158 0 -252 26.5t-146.5 96t-69 165t-16.5 261.5q0 334 96.5 442t387.5 108q137 0 219 -18t139.5 -71.5t79 -144.5t21.5 -243v-108h-775q0 -94 3.5 -147.5t15.5 -102.5t29.5 -70.5t56.5 -38 t86 -20.5t125 -4q176 0 234.5 28.5t58.5 137.5v41zM274 633h607q-4 121 -13.5 180t-45.5 95t-83 42t-149 6q-111 0 -171.5 -13t-92 -58t-39 -93t-13.5 -159zM465 1337v-151h-180v151h180zM874 1337v-151h-180v151h180z" />
<glyph unicode="&#xec;" horiz-adv-x="440" d="M301 1075v-1075h-162v1075h162zM111 1522l303 -232l-54 -84l-331 205z" />
<glyph unicode="&#xed;" horiz-adv-x="440" d="M301 1075v-1075h-162v1075h162zM334 1522l80 -111l-330 -205l-55 84z" />
<glyph unicode="&#xee;" horiz-adv-x="440" d="M301 1075v-1075h-162v1075h162zM223 1507l355 -221l-50 -86l-305 156l-317 -156l-43 86z" />
<glyph unicode="&#xef;" horiz-adv-x="440" d="M301 1075v-1075h-162v1075h162zM106 1337v-151h-180v151h180zM516 1337v-151h-180v151h180z" />
<glyph unicode="&#xf0;" d="M274 536.5q0 -104.5 2.5 -162t14.5 -111.5t29.5 -76.5t55.5 -41t84 -22.5t124 -4t124 4t83.5 22.5t55 41t30 76.5t14.5 111.5t2 162t-2 163t-14.5 111.5t-30 76.5t-55 42t-83.5 22.5t-124 4t-124 -4t-84 -22.5t-55.5 -42t-29.5 -76.5t-14.5 -111.5t-2.5 -163zM381 1499 l147 49q119 -74 201 -151l213 69l96 -84l-225 -69q248 -274 248 -662q0 -158 -6 -257t-27.5 -179t-50.5 -121t-88.5 -66.5t-126 -32.5t-178.5 -7q-156 0 -244 20.5t-143.5 85t-73 164.5t-17.5 278.5t17.5 278.5t73 166t143.5 86t244 20q96 0 143 -13t98 -50 q-47 113 -166 242l-229 -72l-90 76l242 78q-146 118 -201 151z" />
<glyph unicode="&#xf1;" horiz-adv-x="1187" d="M303 1075v-131h4q57 143 332 143q219 0 313.5 -78.5t91.5 -293.5v-715h-161v727q0 141 -56.5 185t-201.5 44q-195 0 -258.5 -69.5t-63.5 -259.5v-627h-162v1075h162zM854 1411l88 -57q-88 -154 -211 -154q-47 0 -149 45q-102 43 -140 43q-10 0 -20 -2t-16.5 -4t-14.5 -9 t-12 -9t-11 -14l-10 -14q-2 -3 -9 -16.5t-9 -15.5l-92 53q78 152 196 152q43 0 150 -43q102 -45 141 -45q68 0 119 90z" />
<glyph unicode="&#xf2;" d="M106 536.5q0 178.5 17.5 278.5t73 166t143.5 86t243.5 20t243.5 -20t143.5 -86t73 -166t17.5 -278.5t-17.5 -278.5t-73 -164.5t-143.5 -85t-243.5 -20.5t-243.5 20.5t-143.5 85t-73 164.5t-17.5 278.5zM274 536.5q0 -104.5 2.5 -162t14.5 -111.5t29.5 -76.5t55.5 -41 t84 -22.5t124 -4t124 4t83.5 22.5t55 41t30 76.5t14.5 111.5t2 162t-2 163t-14.5 111.5t-30 76.5t-55 42t-83.5 22.5t-124 4t-124 -4t-84 -22.5t-55.5 -42t-29.5 -76.5t-14.5 -111.5t-2.5 -163zM432 1522l303 -232l-53 -84l-332 205z" />
<glyph unicode="&#xf3;" d="M106 536.5q0 178.5 17.5 278.5t73 166t143.5 86t243.5 20t243.5 -20t143.5 -86t73 -166t17.5 -278.5t-17.5 -278.5t-73 -164.5t-143.5 -85t-243.5 -20.5t-243.5 20.5t-143.5 85t-73 164.5t-17.5 278.5zM274 536.5q0 -104.5 2.5 -162t14.5 -111.5t29.5 -76.5t55.5 -41 t84 -22.5t124 -4t124 4t83.5 22.5t55 41t30 76.5t14.5 111.5t2 162t-2 163t-14.5 111.5t-30 76.5t-55 42t-83.5 22.5t-124 4t-124 -4t-84 -22.5t-55.5 -42t-29.5 -76.5t-14.5 -111.5t-2.5 -163zM696 1522l80 -111l-330 -205l-55 84z" />
<glyph unicode="&#xf4;" d="M106 536.5q0 178.5 17.5 278.5t73 166t143.5 86t243.5 20t243.5 -20t143.5 -86t73 -166t17.5 -278.5t-17.5 -278.5t-73 -164.5t-143.5 -85t-243.5 -20.5t-243.5 20.5t-143.5 85t-73 164.5t-17.5 278.5zM274 536.5q0 -104.5 2.5 -162t14.5 -111.5t29.5 -76.5t55.5 -41 t84 -22.5t124 -4t124 4t83.5 22.5t55 41t30 76.5t14.5 111.5t2 162t-2 163t-14.5 111.5t-30 76.5t-55 42t-83.5 22.5t-124 4t-124 -4t-84 -22.5t-55.5 -42t-29.5 -76.5t-14.5 -111.5t-2.5 -163zM588 1507l354 -221l-49 -86l-305 156l-318 -156l-43 86z" />
<glyph unicode="&#xf5;" d="M106 536.5q0 178.5 17.5 278.5t73 166t143.5 86t243.5 20t243.5 -20t143.5 -86t73 -166t17.5 -278.5t-17.5 -278.5t-73 -164.5t-143.5 -85t-243.5 -20.5t-243.5 20.5t-143.5 85t-73 164.5t-17.5 278.5zM274 536.5q0 -104.5 2.5 -162t14.5 -111.5t29.5 -76.5t55.5 -41 t84 -22.5t124 -4t124 4t83.5 22.5t55 41t30 76.5t14.5 111.5t2 162t-2 163t-14.5 111.5t-30 76.5t-55 42t-83.5 22.5t-124 4t-124 -4t-84 -22.5t-55.5 -42t-29.5 -76.5t-14.5 -111.5t-2.5 -163zM844 1411l88 -57q-88 -154 -211 -154q-47 0 -150 45q-102 43 -139 43 q-10 0 -20.5 -2t-16.5 -4t-14 -9t-12 -9t-12 -14l-9 -14q-2 -3 -9 -16.5t-9 -15.5l-92 53q78 152 196 152q41 0 150 -43q102 -45 141 -45q68 0 119 90z" />
<glyph unicode="&#xf6;" d="M106 536.5q0 178.5 17.5 278.5t73 166t143.5 86t243.5 20t243.5 -20t143.5 -86t73 -166t17.5 -278.5t-17.5 -278.5t-73 -164.5t-143.5 -85t-243.5 -20.5t-243.5 20.5t-143.5 85t-73 164.5t-17.5 278.5zM274 536.5q0 -104.5 2.5 -162t14.5 -111.5t29.5 -76.5t55.5 -41 t84 -22.5t124 -4t124 4t83.5 22.5t55 41t30 76.5t14.5 111.5t2 162t-2 163t-14.5 111.5t-30 76.5t-55 42t-83.5 22.5t-124 4t-124 -4t-84 -22.5t-55.5 -42t-29.5 -76.5t-14.5 -111.5t-2.5 -163zM469 1337v-151h-180v151h180zM879 1337v-151h-181v151h181z" />
<glyph unicode="&#xf7;" horiz-adv-x="1196" d="M1094 657v-153h-992v153h992zM705 86h-213v213h213v-213zM705 862h-213v213h213v-213z" />
<glyph unicode="&#xf8;" d="M1090 1106v-139l-70 -74q45 -104 41 -356q-2 -131 -11.5 -210t-37 -152t-78.5 -109.5t-134 -57t-208 -20.5q-305 0 -399 104l-130 -125v135l84 82q-41 82 -41 353q0 115 5.5 187.5t23 140t49 105.5t87 66.5t133 39.5t188.5 11q82 0 132 -3t125 -26.5t118 -70.5zM889 758 l-578 -549q25 -90 281 -90q78 0 120 2t79.5 21.5t53 38t28 75.5t15.5 112.5t5 168.5q0 147 -4 221zM281 317l575 555q-37 84 -264 84q-78 0 -123 -4t-86 -19t-59.5 -40t-33 -75t-16.5 -114.5t0 -166.5q7 -218 7 -220z" />
<glyph unicode="&#xf9;" d="M860 0v143h-4q-68 -156 -336 -155q-211 0 -298 91t-87 306v690h162v-690q0 -150 38 -208t183 -58q186 0 265 56t79 237v663h162v-1075h-164zM391 1522l303 -232l-53 -84l-332 205z" />
<glyph unicode="&#xfa;" d="M860 0v143h-4q-68 -156 -336 -155q-211 0 -298 91t-87 306v690h162v-690q0 -150 38 -208t183 -58q186 0 265 56t79 237v663h162v-1075h-164zM696 1522l80 -111l-330 -205l-55 84z" />
<glyph unicode="&#xfb;" d="M860 0v143h-4q-68 -156 -336 -155q-211 0 -298 91t-87 306v690h162v-690q0 -150 38 -208t183 -58q186 0 265 56t79 237v663h162v-1075h-164zM588 1507l354 -221l-49 -86l-305 156l-318 -156l-43 86z" />
<glyph unicode="&#xfc;" d="M860 0v143h-4q-68 -156 -336 -155q-211 0 -298 91t-87 306v690h162v-690q0 -150 38 -208t183 -58q186 0 265 56t79 237v663h162v-1075h-164zM469 1337v-151h-180v151h180zM879 1337v-151h-181v151h181z" />
<glyph unicode="&#xfd;" horiz-adv-x="894" d="M903 1075l-309 -1151q-57 -199 -100 -268q-86 -133 -263 -133q-18 0 -73 10v125q27 -6 57 -6q47 0 83 22.5t58.5 67.5t34.5 81t26.5 96.5t20.5 80.5h-57l-389 1075h166l331 -956h5l241 956h168zM598 1522l80 -111l-330 -205l-55 84z" />
<glyph unicode="&#xfe;" horiz-adv-x="1173" d="M602 956q-66 0 -114 -10t-80.5 -22.5t-54 -45t-33 -56t-16.5 -80t-6 -92.5t-1 -113q0 -90 4 -143.5t20.5 -113t48 -90t90 -51t142.5 -20.5q186 0 241.5 77.5t55.5 340.5q0 135 -7 203.5t-38 124t-89.5 73.5t-162.5 18zM297 127v-592h-162v2001h162v-592l4 -4 q78 147 346 147q115 0 194 -28.5t123 -70.5t67.5 -119.5t29.5 -148.5t6 -183q0 -317 -90 -433t-330 -116q-279 0 -346 139h-4z" />
<glyph unicode="&#xff;" horiz-adv-x="894" d="M903 1075l-309 -1151q-57 -199 -100 -268q-86 -133 -263 -133q-18 0 -73 10v125q27 -6 57 -6q47 0 83 22.5t58.5 67.5t34.5 81t26.5 96.5t20.5 80.5h-57l-389 1075h166l331 -956h5l241 956h168zM334 1337v-151h-180v151h180zM743 1337v-151h-180v151h180z" />
<glyph unicode="&#x152;" horiz-adv-x="2271" d="M723 1395q-82 0 -129 -1t-101.5 -8.5t-82 -18.5t-58 -32.5t-45 -51.5t-27 -77t-16.5 -103t-4 -136l-2 -412q0 -78 4 -135.5t18.5 -101.5t29 -72.5t48 -49t61 -31.5t83 -16.5t98.5 -6.5t123 -1q84 0 131 1t104.5 7.5t87 17.5t63.5 31.5t48 50.5t29.5 74t19.5 100t4 132 v412q0 106 -7 174.5t-32.5 119t-53 75t-93.5 39t-126 17.5t-175 3zM1384 1382v-522h777v-143h-777v-563h811v-154h-985v160h-4q-25 -49 -67.5 -83t-84.5 -51.5t-107.5 -26.5t-107.5 -10t-116 -1q-127 0 -208 6t-160 26.5t-124 58.5t-80.5 101.5t-50 154.5t-14.5 220v412 q0 340 132 460.5t505 120.5q446 0 483 -176h4v164h985v-154h-811z" />
<glyph unicode="&#x153;" horiz-adv-x="1929" d="M885 537q0 113 -2 169t-14.5 112t-29 76.5t-58.5 39t-89 20.5t-133 2q-63 0 -105 -6t-75 -14t-52.5 -36t-30.5 -49.5t-16.5 -78.5t-6.5 -100t-1 -135q0 -98 3.5 -153.5t14.5 -109t29.5 -79t54.5 -45t84 -25.5t122 -6q57 0 98 3t74.5 14t54 22.5t36 40t23.5 52t12.5 75 t5.5 93.5t1 118zM104 537q0 90 3.5 147t12.5 122.5t28.5 103.5t51 76t80 57.5t116 31.5t157.5 12q213 0 295 -30q102 -35 119 -121h4q18 51 58 84t101.5 46t112.5 17t125 4q137 0 219 -18t139.5 -71.5t79 -144.5t21.5 -243v-108h-774q0 -94 3 -147.5t15 -102.5t29.5 -70.5 t56.5 -38t86 -20.5t125 -4q176 0 234.5 28.5t58.5 137.5v41h166v-39q0 -82 -26.5 -140.5t-64.5 -89t-104.5 -47t-122 -19.5t-141.5 -3q-164 0 -260 27.5t-139 121.5q-18 -53 -59.5 -86t-105 -45t-104.5 -15t-114 -3h-21q-123 0 -206 21.5t-133 60.5t-77.5 110.5t-36 151.5 t-8.5 205zM1053 633h606q-4 121 -13.5 180t-45 95t-83 42t-149.5 6q-111 0 -171 -13t-92 -58t-39 -93t-13 -159z" />
<glyph unicode="&#x178;" horiz-adv-x="1294" d="M1307 1536l-582 -895v-641h-174v641l-563 895h202l455 -719l455 719h207zM532 1798v-151h-180v151h180zM942 1798v-151h-180v151h180z" />
<glyph unicode="&#x2c6;" horiz-adv-x="1021" d="M514 1507l354 -221l-49 -86l-305 156l-317 -156l-43 86z" />
<glyph unicode="&#x2dc;" horiz-adv-x="1001" d="M760 1411l88 -57q-88 -154 -211 -154q-47 0 -150 45q-102 43 -139 43q-10 0 -20.5 -2t-16.5 -4t-14 -9t-12 -9t-12 -14l-9 -14q-2 -3 -9 -16.5t-9 -15.5l-92 53q78 152 196 152q43 0 150 -43q102 -45 141 -45q68 0 119 90z" />
<glyph unicode="&#x2000;" horiz-adv-x="991" />
<glyph unicode="&#x2001;" horiz-adv-x="1982" />
<glyph unicode="&#x2002;" horiz-adv-x="991" />
<glyph unicode="&#x2003;" horiz-adv-x="1982" />
<glyph unicode="&#x2004;" horiz-adv-x="659" />
<glyph unicode="&#x2005;" horiz-adv-x="495" />
<glyph unicode="&#x2006;" horiz-adv-x="329" />
<glyph unicode="&#x2007;" horiz-adv-x="329" />
<glyph unicode="&#x2008;" horiz-adv-x="247" />
<glyph unicode="&#x2009;" horiz-adv-x="395" />
<glyph unicode="&#x200a;" horiz-adv-x="108" />
<glyph unicode="&#x2010;" horiz-adv-x="534" d="M0 637h535v-154h-535v154z" />
<glyph unicode="&#x2011;" horiz-adv-x="534" d="M0 637h535v-154h-535v154z" />
<glyph unicode="&#x2012;" horiz-adv-x="534" d="M0 637h535v-154h-535v154z" />
<glyph unicode="&#x2013;" horiz-adv-x="1024" d="M0 637h1024v-154h-1024v154z" />
<glyph unicode="&#x2014;" horiz-adv-x="2048" d="M0 637h2048v-154h-2048v154z" />
<glyph unicode="&#x2018;" horiz-adv-x="411" d="M209 1319h78v-209h-183v248q0 94 32 142t126 48h47v-92q-57 -2 -78.5 -22.5t-21.5 -75.5v-39z" />
<glyph unicode="&#x2019;" horiz-adv-x="411" d="M205 1327h-78v209h182v-248q0 -94 -31.5 -142t-125.5 -48h-48v92q57 2 79 22.5t22 75.5v39z" />
<glyph unicode="&#x201a;" horiz-adv-x="466" d="M231 0h-77v209h182v-248q0 -94 -32 -142t-126 -48h-47v92q57 2 78.5 22.5t21.5 75.5v39z" />
<glyph unicode="&#x201c;" horiz-adv-x="735" d="M530 1319h78v-209h-182v248q0 94 31.5 142t126.5 48h47v-92q-57 -2 -79 -22.5t-22 -75.5v-39zM209 1319h78v-209h-183v248q0 94 32 142t126 48h47v-92q-57 -2 -78.5 -22.5t-21.5 -75.5v-39z" />
<glyph unicode="&#x201d;" horiz-adv-x="735" d="M205 1327h-78v209h182v-248q0 -94 -31.5 -142t-125.5 -48h-48v92q57 2 79 22.5t22 75.5v39zM526 1327h-77v209h182v-248q0 -94 -32 -142t-126 -48h-47v92q57 2 78.5 22.5t21.5 75.5v39z" />
<glyph unicode="&#x201e;" horiz-adv-x="735" d="M205 0h-78v209h182v-248q0 -94 -31.5 -142t-125.5 -48h-48v92q57 2 79 22.5t22 75.5v39zM526 0h-77v209h182v-248q0 -94 -32 -142t-126 -48h-47v92q57 2 78.5 22.5t21.5 75.5v39z" />
<glyph unicode="&#x2022;" horiz-adv-x="1064" d="M918 768q0 -158 -113 -270.5t-272.5 -112.5t-271 111.5t-111.5 271.5q-2 160 109.5 272.5t272.5 112.5q160 0 273 -112.5t113 -272.5z" />
<glyph unicode="&#x2026;" horiz-adv-x="2048" d="M434 209v-209h-182v209h182zM1116 209v-209h-182v209h182zM1798 209v-209h-182v209h182z" />
<glyph unicode="&#x202f;" horiz-adv-x="395" />
<glyph unicode="&#x2039;" horiz-adv-x="651" d="M391 1178l119 -72l-242 -514l269 -518l-113 -74l-309 592z" />
<glyph unicode="&#x203a;" horiz-adv-x="651" d="M141 1106l119 72l277 -586l-310 -592l-112 74l268 518z" />
<glyph unicode="&#x205f;" horiz-adv-x="495" />
<glyph unicode="&#x20ac;" horiz-adv-x="1413" d="M1399 1374l-62 -184q-47 102 -142 153.5t-218 51.5h-277q-150 0 -230.5 -69t-80.5 -255v-84h887l-41 -133h-846v-127h807l-41 -133h-766q0 -104 6 -168t23.5 -124t50.5 -92t88 -50.5t137 -18.5h289q258 0 365 193v-203q-117 -143 -428 -143h-258q-211 0 -329 127 t-118 356v123h-190l41 133h149v127h-190l41 133h149v78q0 117 33 207t83 141t118.5 83t128 42t122.5 10h230q66 0 98.5 -2t108 -15t141.5 -53.5t121 -103.5z" />
<glyph unicode="&#x2122;" horiz-adv-x="2048" d="M1929 1536v-862h-143v739h-4l-295 -739h-80l-287 739h-4v-739h-143v862h227l248 -608l256 608h225zM827 1536v-123h-272v-739h-154v739h-272v123h698z" />
<glyph unicode="&#xe000;" horiz-adv-x="1075" d="M0 1075h1075v-1075h-1075v1075z" />
<glyph unicode="&#xfb01;" horiz-adv-x="1042" d="M903 1075v-1075h-162v1075h162zM342 1075h285v-131h-285v-944h-162v944h-164v131h164v129q0 197 74 270.5t272 73.5q35 0 101 -4v-131q-66 4 -101 4q-117 0 -150.5 -41t-33.5 -155v-146zM903 1536v-178h-162v178h162z" />
<glyph unicode="&#xfb02;" horiz-adv-x="1050" d="M342 1075h285v-131h-285v-944h-162v944h-164v131h164v129q0 197 74 270.5t272 73.5q35 0 101 -4v-131q-66 4 -101 4q-117 0 -150.5 -41t-33.5 -155v-146zM911 1536v-1536h-161v1536h161z" />
<glyph unicode="&#xfb03;" horiz-adv-x="1677" d="M1538 1075v-1075h-162v1075h162zM1538 1536v-178h-162v178h162zM960 1075h285v-131h-285v-944h-162v944h-164v131h164v129q0 197 74 270.5t272 73.5q35 0 101 -4v-131q-66 4 -101 4q-117 0 -150.5 -41t-33.5 -155v-146zM342 1075h285v-131h-285v-944h-162v944h-164v131 h164v129q0 197 74 270.5t272 73.5q35 0 101 -4v-131q-66 4 -101 4q-117 0 -150.5 -41t-33.5 -155v-146z" />
<glyph unicode="&#xfb04;" horiz-adv-x="1675" d="M1538 1536v-1536h-162v1536h162zM960 1075h285v-131h-285v-944h-162v944h-164v131h164v129q0 197 74 270.5t272 73.5q35 0 101 -4v-131q-66 4 -101 4q-117 0 -150.5 -41t-33.5 -155v-146zM342 1075h285v-131h-285v-944h-162v944h-164v131h164v129q0 197 74 270.5 t272 73.5q35 0 101 -4v-131q-66 4 -101 4q-117 0 -150.5 -41t-33.5 -155v-146z" />
</font>
</defs>
</svg>
